<?xml version="1.0" standalone="no"?>
<!DOCTYPE svg PUBLIC "-//W3C//DTD SVG 1.0//EN" "http://www.w3.org/TR/2001/REC-SVG-20010904/DTD/svg10.dtd">
<svg xmlns="http://www.w3.org/2000/svg" xmlns:xlink="http://www.w3.org/1999/xlink" id="body_1" width="809" height="157">

<defs>
    <clipPath  id="1">

    <path id=""  clip-rule="evenodd" transform="matrix(1 0 0 1 0 0)"  d="M0 118L0 -0.7274933L0 -0.7274933L607.0128 -0.7274933L607.0128 -0.7274933L607.0128 118L607.0128 118L0 118z" />    </clipPath>
    <clipPath  id="2">

    <path id=""  clip-rule="evenodd" transform="matrix(1 0 0 1 0 0)"  d="M-172.86783 -195.41006L787.1322 -195.41006L787.1322 -195.41006L787.1322 344.58994L787.1322 344.58994L-172.86783 344.58994z" />    </clipPath>
    <clipPath  id="3">

    <path id=""  clip-rule="evenodd" transform="matrix(1 0 0 1 0 0)"  d="M241.05417 32.43994L231.13217 6.1399384L231.13217 6.1399384L229.88217 6.1399384L229.88217 6.1399384L220.17719 32.43994L220.17719 32.43994L241.05417 32.43994M242.41116 36.039932L218.84918 36.039932L218.84918 36.039932L213.97916 49.23993L213.97916 49.23993L220.63217 49.23993L220.63217 49.23993L221.24216 49.270935L221.24216 49.270935L221.75919 49.36293L221.75919 49.36293L222.18216 49.516937L222.18216 49.516937L222.51318 49.73294L222.51318 49.73294L222.76218 49.99994L222.76218 49.99994L222.94019 50.30594L222.94019 50.30594L223.04617 50.65294L223.04617 50.65294L223.08218 51.039932L223.08218 51.039932L223.04617 51.409943L223.04617 51.409943L222.94019 51.746933L222.94019 51.746933L222.76218 52.05194L222.76218 52.05194L222.51318 52.325928L222.51318 52.325928L222.35916 52.44594L222.35916 52.44594L222.18216 52.550934L222.18216 52.550934L221.75919 52.710938L221.75919 52.710938L221.24216 52.807938L221.24216 52.807938L220.63217 52.839935L220.63217 52.839935L207.93216 52.839935L207.93216 52.839935L207.32217 52.807938L207.32217 52.807938L206.80518 52.710938L206.80518 52.710938L206.38217 52.550934L206.38217 52.550934L206.20517 52.44594L206.20517 52.44594L206.05118 52.325928L206.05118 52.325928L205.80219 52.05194L205.80219 52.05194L205.62418 51.746933L205.62418 51.746933L205.51816 51.409943L205.51816 51.409943L205.48218 51.039932L205.48218 51.039932L205.51816 50.65294L205.51816 50.65294L205.62418 50.30594L205.62418 50.30594L205.80219 49.99994L205.80219 49.99994L206.05118 49.73294L206.05118 49.73294L206.38217 49.516937L206.38217 49.516937L206.80518 49.36293L206.80518 49.36293L207.32217 49.270935L207.32217 49.270935L207.93216 49.23993L207.93216 49.23993L210.14517 49.23993L210.14517 49.23993L226.04816 6.1399384L226.04816 6.1399384L215.43216 6.1399384L215.43216 6.1399384L214.82217 6.1089325L214.82217 6.1089325L214.30518 6.0169373L214.30518 6.0169373L213.88217 5.8629303L213.88217 5.8629303L213.55118 5.646942L213.55118 5.646942L213.30219 5.3799286L213.30219 5.3799286L213.12418 5.073929L213.12418 5.073929L213.01816 4.7269287L213.01816 4.7269287L212.98218 4.3399353L212.98218 4.3399353L213.01816 3.952942L213.01816 3.952942L213.12418 3.6059418L213.12418 3.6059418L213.30219 3.299942L213.30219 3.299942L213.55118 3.0329285L213.55118 3.0329285L213.88217 2.8169403L213.88217 2.8169403L214.30518 2.6629333L214.30518 2.6629333L214.82217 2.570938L214.82217 2.570938L215.43216 2.5399323L215.43216 2.5399323L233.61917 2.5399323L233.61917 2.5399323L251.23618 49.23993L251.23618 49.23993L253.48218 49.23993L253.48218 49.23993L254.09216 49.270935L254.09216 49.270935L254.60916 49.36293L254.60916 49.36293L255.03217 49.516937L255.03217 49.516937L255.36316 49.73294L255.36316 49.73294L255.61218 49.99994L255.61218 49.99994L255.79016 50.30594L255.79016 50.30594L255.89618 50.65294L255.89618 50.65294L255.93216 51.039932L255.93216 51.039932L255.89618 51.409943L255.89618 51.409943L255.79016 51.746933L255.79016 51.746933L255.61218 52.05194L255.61218 52.05194L255.36316 52.325928L255.36316 52.325928L255.20917 52.44594L255.20917 52.44594L255.03217 52.550934L255.03217 52.550934L254.60916 52.710938L254.60916 52.710938L254.09216 52.807938L254.09216 52.807938L253.48218 52.839935L253.48218 52.839935L240.73218 52.839935L240.73218 52.839935L240.11417 52.807938L240.11417 52.807938L239.59317 52.710938L239.59317 52.710938L239.16818 52.550934L239.16818 52.550934L238.99216 52.44594L238.99216 52.44594L238.84119 52.325928L238.84119 52.325928L238.59616 52.05194L238.59616 52.05194L238.42218 51.746933L238.42218 51.746933L238.31717 51.409943L238.31717 51.409943L238.28217 51.039932L238.28217 51.039932L238.31717 50.65294L238.31717 50.65294L238.42218 50.30594L238.42218 50.30594L238.59616 49.99994L238.59616 49.99994L238.84119 49.73294L238.84119 49.73294L238.99216 49.61693L238.99216 49.61693L239.16818 49.516937L239.16818 49.516937L239.59317 49.36293L239.59317 49.36293L240.11417 49.270935L240.11417 49.270935L240.73218 49.23993L240.73218 49.23993L247.39117 49.23993L247.39117 49.23993L242.41116 36.039932z" />    </clipPath>
    <linearGradient gradientUnits="userSpaceOnUse"  transform="matrix(1 0 0 1 0 0)"  id="4572" x1="338.03217" y1="141.36006" x2="338.03217" y2="35.76007"><stop stop-color="#53575C" offset="0%"/><stop stop-color="#53575C" offset="1%"/><stop stop-color="#53575C" offset="2%"/><stop stop-color="#53575C" offset="3%"/><stop stop-color="#53575C" offset="4%"/><stop stop-color="#53575C" offset="5%"/><stop stop-color="#53575C" offset="6%"/><stop stop-color="#53575C" offset="7%"/><stop stop-color="#53575C" offset="8%"/><stop stop-color="#53575C" offset="9%"/><stop stop-color="#53575C" offset="10%"/><stop stop-color="#53575C" offset="11%"/><stop stop-color="#53575C" offset="12%"/><stop stop-color="#53575C" offset="13%"/><stop stop-color="#53575C" offset="14%"/><stop stop-color="#53575C" offset="15%"/><stop stop-color="#53575C" offset="16%"/><stop stop-color="#53575C" offset="17%"/><stop stop-color="#53575C" offset="18%"/><stop stop-color="#53575C" offset="19%"/><stop stop-color="#53575C" offset="20%"/><stop stop-color="#53575C" offset="21%"/><stop stop-color="#55595E" offset="22%"/><stop stop-color="#565A5F" offset="23%"/><stop stop-color="#585C61" offset="24%"/><stop stop-color="#5A5E63" offset="25%"/><stop stop-color="#5B5F64" offset="26%"/><stop stop-color="#5D6166" offset="27%"/><stop stop-color="#5F6368" offset="28%"/><stop stop-color="#616469" offset="29%"/><stop stop-color="#62666B" offset="30%"/><stop stop-color="#64686C" offset="31%"/><stop stop-color="#66696E" offset="32%"/><stop stop-color="#676B70" offset="33%"/><stop stop-color="#696D71" offset="34%"/><stop stop-color="#6B6E73" offset="35%"/><stop stop-color="#6C7075" offset="36%"/><stop stop-color="#6E7276" offset="37%"/><stop stop-color="#707378" offset="38%"/><stop stop-color="#72757A" offset="39%"/><stop stop-color="#73777B" offset="40%"/><stop stop-color="#75787D" offset="41%"/><stop stop-color="#777A7F" offset="42%"/><stop stop-color="#787C80" offset="43%"/><stop stop-color="#7A7D82" offset="44%"/><stop stop-color="#7C7F83" offset="45%"/><stop stop-color="#7E8185" offset="46%"/><stop stop-color="#7F8287" offset="47%"/><stop stop-color="#818488" offset="48%"/><stop stop-color="#83868A" offset="49%"/><stop stop-color="#84878C" offset="50%"/><stop stop-color="#86898D" offset="51%"/><stop stop-color="#888B8F" offset="52%"/><stop stop-color="#898C91" offset="53%"/><stop stop-color="#8B8E92" offset="54%"/><stop stop-color="#8D9094" offset="55%"/><stop stop-color="#8F9195" offset="56%"/><stop stop-color="#909397" offset="57%"/><stop stop-color="#929599" offset="58%"/><stop stop-color="#94969A" offset="59%"/><stop stop-color="#95989C" offset="60%"/><stop stop-color="#979A9E" offset="61%"/><stop stop-color="#999B9F" offset="62%"/><stop stop-color="#9A9DA1" offset="63%"/><stop stop-color="#9C9FA3" offset="64%"/><stop stop-color="#9EA0A4" offset="65%"/><stop stop-color="#A0A2A6" offset="66%"/><stop stop-color="#A1A4A8" offset="67%"/><stop stop-color="#A3A5A9" offset="68%"/><stop stop-color="#A5A7AB" offset="69%"/><stop stop-color="#A6A9AC" offset="70%"/><stop stop-color="#A8AAAE" offset="71%"/><stop stop-color="#AAACB0" offset="72%"/><stop stop-color="#ACAEB1" offset="73%"/><stop stop-color="#ADB0B3" offset="74%"/><stop stop-color="#AFB1B5" offset="75%"/><stop stop-color="#B1B3B6" offset="76%"/><stop stop-color="#B2B5B8" offset="77%"/><stop stop-color="#B4B6BA" offset="78%"/><stop stop-color="#B6B8BB" offset="79%"/><stop stop-color="#B7BABD" offset="80%"/><stop stop-color="#B9BBBE" offset="81%"/><stop stop-color="#BBBDC0" offset="82%"/><stop stop-color="#BDBFC2" offset="83%"/><stop stop-color="#BEC0C3" offset="84%"/><stop stop-color="#C0C2C5" offset="85%"/><stop stop-color="#C2C4C7" offset="86%"/><stop stop-color="#C3C5C8" offset="87%"/><stop stop-color="#C5C7CA" offset="88%"/><stop stop-color="#C5C7CA" offset="89%"/><stop stop-color="#C5C7CA" offset="90%"/><stop stop-color="#C5C7CA" offset="91%"/><stop stop-color="#C5C7CA" offset="92%"/><stop stop-color="#C5C7CA" offset="93%"/><stop stop-color="#C5C7CA" offset="94%"/><stop stop-color="#C5C7CA" offset="95%"/><stop stop-color="#C5C7CA" offset="96%"/><stop stop-color="#C5C7CA" offset="97%"/><stop stop-color="#C5C7CA" offset="98%"/><stop stop-color="#C5C7CA" offset="99%"/><stop stop-color="#C5C7CA" offset="100%"/>
    </linearGradient>
    <clipPath  id="4">

    <path id=""  clip-rule="evenodd" transform="matrix(1 0 0 1 0 0)"  d="M276.78217 52.839935L276.78217 50.108932L276.78217 50.108932L275.83118 50.912933L275.83118 50.912933L274.86218 51.60994L274.86218 51.60994L273.87317 52.199936L273.87317 52.199936L273.3712 52.453934L273.3712 52.453934L272.86517 52.68193L272.86517 52.68193L272.35318 52.882935L272.35318 52.882935L271.83716 53.05693L271.83716 53.05693L271.31717 53.20494L271.31717 53.20494L270.79117 53.325928L270.79117 53.325928L270.26117 53.41893L270.26117 53.41893L269.72516 53.48593L269.72516 53.48593L269.18518 53.52693L269.18518 53.52693L268.64117 53.539932L268.64117 53.539932L267.98816 53.516937L267.98816 53.516937L267.37616 53.447937L267.37616 53.447937L266.80417 53.33293L266.80417 53.33293L266.2722 53.171936L266.2722 53.171936L265.78018 52.96393L265.78018 52.96393L265.32916 52.710938L265.32916 52.710938L264.91916 52.41194L264.91916 52.41194L264.54816 52.06694L264.54816 52.06694L264.12317 51.572937L264.12317 51.572937L263.75418 51.05893L263.75418 51.05893L263.44217 50.52594L263.44217 50.52594L263.18616 49.97194L263.18616 49.97194L262.98718 49.39894L262.98718 49.39894L262.84616 48.80493L262.84616 48.80493L262.76016 48.19194L262.76016 48.19194L262.73218 47.55893L262.73218 47.55893L262.73218 35.63994L262.73218 35.63994L260.28217 35.63994L260.28217 35.63994L259.97116 35.62393L259.97116 35.62393L259.70718 35.574936L259.70718 35.574936L259.49118 35.494934L259.49118 35.494934L259.32217 35.381943L259.32217 35.381943L259.19516 35.242935L259.19516 35.242935L259.10516 35.085938L259.10516 35.085938L259.05017 34.909943L259.05017 34.909943L259.03217 34.714935L259.03217 34.714935L259.05017 34.524933L259.05017 34.524933L259.10516 34.35193L259.10516 34.35193L259.19516 34.19493L259.19516 34.19493L259.32217 34.05394L259.32217 34.05394L259.49118 33.938934L259.49118 33.938934L259.70718 33.85594L259.70718 33.85594L259.97116 33.80693L259.97116 33.80693L260.28217 33.789932L260.28217 33.789932L264.58218 33.789932L264.58218 33.789932L264.58218 47.56093L264.58218 47.56093L264.60016 48.00093L264.60016 48.00093L264.65317 48.421936L264.65317 48.421936L264.74216 48.82193L264.74216 48.82193L264.86618 49.20294L264.86618 49.20294L265.02618 49.562943L265.02618 49.562943L265.22217 49.90393L265.22217 49.90393L265.4532 50.22493L265.4532 50.22493L265.71918 50.52594L265.71918 50.52594L266.01218 50.798935L266.01218 50.798935L266.32318 51.034943L266.32318 51.034943L266.65216 51.23494L266.65216 51.23494L266.99817 51.39894L266.99817 51.39894L267.36218 51.52594L267.36218 51.52594L267.74417 51.61693L267.74417 51.61693L268.14417 51.671936L268.14417 51.671936L268.56116 51.68994L268.56116 51.68994L269.11816 51.673935L269.11816 51.673935L269.67017 51.62494L269.67017 51.62494L270.2162 51.544937L270.2162 51.544937L270.75516 51.43193L270.75516 51.43193L271.29016 51.28694L271.29016 51.28694L271.81818 51.108932L271.81818 51.108932L272.34018 50.899933L272.34018 50.899933L272.85718 50.65793L272.85718 50.65793L273.36816 50.38394L273.36816 50.38394L273.87317 50.076935L273.87317 50.076935L274.37317 49.73793L274.37317 49.73793L274.86618 49.36693L274.86618 49.36693L275.35416 48.96393L275.35416 48.96393L275.83618 48.52893L275.83618 48.52893L276.31216 48.06093L276.31216 48.06093L276.78217 47.56093L276.78217 47.56093L276.78217 35.63994L276.78217 35.63994L273.38217 35.63994L273.38217 35.63994L273.07117 35.62393L273.07117 35.62393L272.80716 35.574936L272.80716 35.574936L272.5912 35.494934L272.5912 35.494934L272.42218 35.381943L272.42218 35.381943L272.29517 35.242935L272.29517 35.242935L272.20517 35.085938L272.20517 35.085938L272.15018 34.909943L272.15018 34.909943L272.13217 34.714935L272.13217 34.714935L272.15018 34.524933L272.15018 34.524933L272.20517 34.35193L272.20517 34.35193L272.29517 34.19493L272.29517 34.19493L272.42218 34.05394L272.42218 34.05394L272.5912 33.938934L272.5912 33.938934L272.80716 33.85594L272.80716 33.85594L273.07117 33.80693L273.07117 33.80693L273.38217 33.789932L273.38217 33.789932L278.63217 33.789932L278.63217 33.789932L278.63217 50.98993L278.63217 50.98993L280.18216 50.98993L280.18216 50.98993L280.49316 51.005936L280.49316 51.005936L280.75717 51.052933L280.75717 51.052933L280.97318 51.131943L280.97318 51.131943L281.14218 51.242935L281.14218 51.242935L281.26917 51.37993L281.26917 51.37993L281.35916 51.537933L281.35916 51.537933L281.41418 51.715942L281.41418 51.715942L281.43216 51.914932L281.43216 51.914932L281.41418 52.104935L281.41418 52.104935L281.35916 52.27794L281.35916 52.27794L281.26917 52.434937L281.26917 52.434937L281.14218 52.575928L281.14218 52.575928L280.97318 52.690933L280.97318 52.690933L280.75717 52.77394L280.75717 52.77394L280.49316 52.822937L280.49316 52.822937L280.18216 52.839935L280.18216 52.839935L276.78217 52.839935" />    </clipPath>
    <linearGradient gradientUnits="userSpaceOnUse"  transform="matrix(1 0 0 1 0 0)"  id="13662" x1="338.03217" y1="141.36006" x2="338.03217" y2="35.76007"><stop stop-color="#53575C" offset="0%"/><stop stop-color="#53575C" offset="1%"/><stop stop-color="#53575C" offset="2%"/><stop stop-color="#53575C" offset="3%"/><stop stop-color="#53575C" offset="4%"/><stop stop-color="#53575C" offset="5%"/><stop stop-color="#53575C" offset="6%"/><stop stop-color="#53575C" offset="7%"/><stop stop-color="#53575C" offset="8%"/><stop stop-color="#53575C" offset="9%"/><stop stop-color="#53575C" offset="10%"/><stop stop-color="#53575C" offset="11%"/><stop stop-color="#53575C" offset="12%"/><stop stop-color="#53575C" offset="13%"/><stop stop-color="#53575C" offset="14%"/><stop stop-color="#53575C" offset="15%"/><stop stop-color="#53575C" offset="16%"/><stop stop-color="#53575C" offset="17%"/><stop stop-color="#53575C" offset="18%"/><stop stop-color="#53575C" offset="19%"/><stop stop-color="#53575C" offset="20%"/><stop stop-color="#53575C" offset="21%"/><stop stop-color="#55595E" offset="22%"/><stop stop-color="#565A5F" offset="23%"/><stop stop-color="#585C61" offset="24%"/><stop stop-color="#5A5E63" offset="25%"/><stop stop-color="#5B5F64" offset="26%"/><stop stop-color="#5D6166" offset="27%"/><stop stop-color="#5F6368" offset="28%"/><stop stop-color="#616469" offset="29%"/><stop stop-color="#62666B" offset="30%"/><stop stop-color="#64686C" offset="31%"/><stop stop-color="#66696E" offset="32%"/><stop stop-color="#676B70" offset="33%"/><stop stop-color="#696D71" offset="34%"/><stop stop-color="#6B6E73" offset="35%"/><stop stop-color="#6C7075" offset="36%"/><stop stop-color="#6E7276" offset="37%"/><stop stop-color="#707378" offset="38%"/><stop stop-color="#72757A" offset="39%"/><stop stop-color="#73777B" offset="40%"/><stop stop-color="#75787D" offset="41%"/><stop stop-color="#777A7F" offset="42%"/><stop stop-color="#787C80" offset="43%"/><stop stop-color="#7A7D82" offset="44%"/><stop stop-color="#7C7F83" offset="45%"/><stop stop-color="#7E8185" offset="46%"/><stop stop-color="#7F8287" offset="47%"/><stop stop-color="#818488" offset="48%"/><stop stop-color="#83868A" offset="49%"/><stop stop-color="#84878C" offset="50%"/><stop stop-color="#86898D" offset="51%"/><stop stop-color="#888B8F" offset="52%"/><stop stop-color="#898C91" offset="53%"/><stop stop-color="#8B8E92" offset="54%"/><stop stop-color="#8D9094" offset="55%"/><stop stop-color="#8F9195" offset="56%"/><stop stop-color="#909397" offset="57%"/><stop stop-color="#929599" offset="58%"/><stop stop-color="#94969A" offset="59%"/><stop stop-color="#95989C" offset="60%"/><stop stop-color="#979A9E" offset="61%"/><stop stop-color="#999B9F" offset="62%"/><stop stop-color="#9A9DA1" offset="63%"/><stop stop-color="#9C9FA3" offset="64%"/><stop stop-color="#9EA0A4" offset="65%"/><stop stop-color="#A0A2A6" offset="66%"/><stop stop-color="#A1A4A8" offset="67%"/><stop stop-color="#A3A5A9" offset="68%"/><stop stop-color="#A5A7AB" offset="69%"/><stop stop-color="#A6A9AC" offset="70%"/><stop stop-color="#A8AAAE" offset="71%"/><stop stop-color="#AAACB0" offset="72%"/><stop stop-color="#ACAEB1" offset="73%"/><stop stop-color="#ADB0B3" offset="74%"/><stop stop-color="#AFB1B5" offset="75%"/><stop stop-color="#B1B3B6" offset="76%"/><stop stop-color="#B2B5B8" offset="77%"/><stop stop-color="#B4B6BA" offset="78%"/><stop stop-color="#B6B8BB" offset="79%"/><stop stop-color="#B7BABD" offset="80%"/><stop stop-color="#B9BBBE" offset="81%"/><stop stop-color="#BBBDC0" offset="82%"/><stop stop-color="#BDBFC2" offset="83%"/><stop stop-color="#BEC0C3" offset="84%"/><stop stop-color="#C0C2C5" offset="85%"/><stop stop-color="#C2C4C7" offset="86%"/><stop stop-color="#C3C5C8" offset="87%"/><stop stop-color="#C5C7CA" offset="88%"/><stop stop-color="#C5C7CA" offset="89%"/><stop stop-color="#C5C7CA" offset="90%"/><stop stop-color="#C5C7CA" offset="91%"/><stop stop-color="#C5C7CA" offset="92%"/><stop stop-color="#C5C7CA" offset="93%"/><stop stop-color="#C5C7CA" offset="94%"/><stop stop-color="#C5C7CA" offset="95%"/><stop stop-color="#C5C7CA" offset="96%"/><stop stop-color="#C5C7CA" offset="97%"/><stop stop-color="#C5C7CA" offset="98%"/><stop stop-color="#C5C7CA" offset="99%"/><stop stop-color="#C5C7CA" offset="100%"/>
    </linearGradient>
    <clipPath  id="5">

    <path id=""  clip-rule="evenodd" transform="matrix(1 0 0 1 0 0)"  d="M293.73218 33.789932L303.73218 33.789932L303.73218 33.789932L304.04318 33.80594L304.04318 33.80594L304.30716 33.854935L304.30716 33.854935L304.52316 33.934937L304.52316 33.934937L304.69217 34.047928L304.69217 34.047928L304.81918 34.186935L304.81918 34.186935L304.90918 34.343933L304.90918 34.343933L304.96417 34.519928L304.96417 34.519928L304.98218 34.714935L304.98218 34.714935L304.96417 34.904938L304.96417 34.904938L304.90918 35.07794L304.90918 35.07794L304.81918 35.23494L304.81918 35.23494L304.69217 35.37593L304.69217 35.37593L304.52316 35.490936L304.52316 35.490936L304.30716 35.57393L304.30716 35.57393L304.04318 35.62294L304.04318 35.62294L303.73218 35.63994L303.73218 35.63994L293.73218 35.63994L293.73218 35.63994L293.73218 47.93094L293.73218 47.93094L293.75217 48.32393L293.75217 48.32393L293.81216 48.699936L293.81216 48.699936L293.91217 49.059937L293.91217 49.059937L294.05316 49.40294L294.05316 49.40294L294.2332 49.729935L294.2332 49.729935L294.4532 50.04094L294.4532 50.04094L294.71417 50.33493L294.71417 50.33493L295.01416 50.61293L295.01416 50.61293L295.35416 50.86493L295.35416 50.86493L295.73016 51.08394L295.73016 51.08394L296.14417 51.268936L296.14417 51.268936L296.59518 51.42093L296.59518 51.42093L297.08417 51.53894L297.08417 51.53894L297.61017 51.62294L297.61017 51.62294L298.17316 51.672928L298.17316 51.672928L298.77316 51.68994L298.77316 51.68994L299.72418 51.654938L299.72418 51.654938L300.71317 51.549942L300.71317 51.549942L301.74118 51.37393L301.74118 51.37393L302.80716 51.12793L302.80716 51.12793L303.83118 50.837936L303.83118 50.837936L304.73517 50.53093L304.73517 50.53093L305.51917 50.20494L305.51917 50.20494L306.18216 49.86194L306.18216 49.86194L306.58218 49.646942L306.58218 49.646942L306.75317 49.593933L306.75317 49.593933L306.90518 49.575928L306.90518 49.575928L307.07516 49.59294L307.07516 49.59294L307.23416 49.644928L307.23416 49.644928L307.38217 49.73094L307.38217 49.73094L307.51917 49.850937L307.51917 49.850937L307.6342 49.994934L307.6342 49.994934L307.7162 50.15094L307.7162 50.15094L307.76617 50.31993L307.76617 50.31993L307.78217 50.50093L307.78217 50.50093L307.76416 50.662933L307.76416 50.662933L307.71118 50.81993L307.71118 50.81993L307.62216 50.97194L307.62216 50.97194L307.49817 51.11693L307.49817 51.11693L307.29117 51.300934L307.29117 51.300934L307.0222 51.488937L307.0222 51.488937L306.6902 51.67993L306.6902 51.67993L306.29617 51.87494L306.29617 51.87494L305.31918 52.27594L305.31918 52.27594L304.09216 52.69194L304.09216 52.69194L303.41916 52.89093L303.41916 52.89093L302.75418 53.062943L302.75418 53.062943L302.09518 53.20894L302.09518 53.20894L301.44418 53.32794L301.44418 53.32794L300.80118 53.42093L300.80118 53.42093L300.16418 53.48694L300.16418 53.48694L299.5352 53.52693L299.5352 53.52693L298.91217 53.539932L298.91217 53.539932L298.12817 53.51593L298.12817 53.51593L297.38516 53.44493L297.38516 53.44493L296.68317 53.326935L296.68317 53.326935L296.02118 53.160934L296.02118 53.160934L295.40118 52.94693L295.40118 52.94693L294.82217 52.686935L294.82217 52.686935L294.28418 52.37793L294.28418 52.37793L293.78717 52.022934L293.78717 52.022934L293.3412 51.626938L293.3412 51.626938L292.95416 51.197937L292.95416 51.197937L292.62616 50.73593L292.62616 50.73593L292.3582 50.24193L292.3582 50.24193L292.15018 49.71393L292.15018 49.71393L292.00116 49.15294L292.00116 49.15294L291.91217 48.55893L291.91217 48.55893L291.88217 47.93193L291.88217 47.93193L291.88217 35.63994L291.88217 35.63994L288.4662 35.63994L288.4662 35.63994L288.15918 35.62393L288.15918 35.62393L287.89917 35.574936L287.89917 35.574936L287.68518 35.492935L287.68518 35.492935L287.51816 35.378937L287.51816 35.378937L287.39316 35.238937L287.39316 35.238937L287.30417 35.078934L287.30417 35.078934L287.25018 34.90094L287.25018 34.90094L287.23218 34.703934L287.23218 34.703934L287.25018 34.51593L287.25018 34.51593L287.30417 34.34494L287.30417 34.34494L287.39316 34.18994L287.39316 34.18994L287.51816 34.050934L287.51816 34.050934L287.68518 33.936935L287.68518 33.936935L287.89917 33.854935L287.89917 33.854935L288.15918 33.80594L288.15918 33.80594L288.4662 33.789932L288.4662 33.789932L291.88217 33.789932L291.88217 33.789932L291.88217 28.323929L291.88217 28.323929L291.89816 28.016937L291.89816 28.016937L291.94717 27.756943L291.94717 27.756943L292.02917 27.542938L292.02917 27.542938L292.14316 27.37593L292.14316 27.37593L292.28217 27.25093L292.28217 27.25093L292.43716 27.161942L292.43716 27.161942L292.60916 27.10794L292.60916 27.10794L292.79617 27.089935L292.79617 27.089935L292.99316 27.10794L292.99316 27.10794L293.17117 27.161942L293.17117 27.161942L293.33118 27.25093L293.33118 27.25093L293.47116 27.37593L293.47116 27.37593L293.58517 27.542938L293.58517 27.542938L293.66718 27.756943L293.66718 27.756943L293.7162 28.016937L293.7162 28.016937L293.73218 28.323929L293.73218 28.323929L293.73218 33.789932" />    </clipPath>
    <linearGradient gradientUnits="userSpaceOnUse"  transform="matrix(1 0 0 1 0 0)"  id="22931" x1="338.03217" y1="141.36006" x2="338.03217" y2="35.76007"><stop stop-color="#53575C" offset="0%"/><stop stop-color="#53575C" offset="1%"/><stop stop-color="#53575C" offset="2%"/><stop stop-color="#53575C" offset="3%"/><stop stop-color="#53575C" offset="4%"/><stop stop-color="#53575C" offset="5%"/><stop stop-color="#53575C" offset="6%"/><stop stop-color="#53575C" offset="7%"/><stop stop-color="#53575C" offset="8%"/><stop stop-color="#53575C" offset="9%"/><stop stop-color="#53575C" offset="10%"/><stop stop-color="#53575C" offset="11%"/><stop stop-color="#53575C" offset="12%"/><stop stop-color="#53575C" offset="13%"/><stop stop-color="#53575C" offset="14%"/><stop stop-color="#53575C" offset="15%"/><stop stop-color="#53575C" offset="16%"/><stop stop-color="#53575C" offset="17%"/><stop stop-color="#53575C" offset="18%"/><stop stop-color="#53575C" offset="19%"/><stop stop-color="#53575C" offset="20%"/><stop stop-color="#53575C" offset="21%"/><stop stop-color="#55595E" offset="22%"/><stop stop-color="#565A5F" offset="23%"/><stop stop-color="#585C61" offset="24%"/><stop stop-color="#5A5E63" offset="25%"/><stop stop-color="#5B5F64" offset="26%"/><stop stop-color="#5D6166" offset="27%"/><stop stop-color="#5F6368" offset="28%"/><stop stop-color="#616469" offset="29%"/><stop stop-color="#62666B" offset="30%"/><stop stop-color="#64686C" offset="31%"/><stop stop-color="#66696E" offset="32%"/><stop stop-color="#676B70" offset="33%"/><stop stop-color="#696D71" offset="34%"/><stop stop-color="#6B6E73" offset="35%"/><stop stop-color="#6C7075" offset="36%"/><stop stop-color="#6E7276" offset="37%"/><stop stop-color="#707378" offset="38%"/><stop stop-color="#72757A" offset="39%"/><stop stop-color="#73777B" offset="40%"/><stop stop-color="#75787D" offset="41%"/><stop stop-color="#777A7F" offset="42%"/><stop stop-color="#787C80" offset="43%"/><stop stop-color="#7A7D82" offset="44%"/><stop stop-color="#7C7F83" offset="45%"/><stop stop-color="#7E8185" offset="46%"/><stop stop-color="#7F8287" offset="47%"/><stop stop-color="#818488" offset="48%"/><stop stop-color="#83868A" offset="49%"/><stop stop-color="#84878C" offset="50%"/><stop stop-color="#86898D" offset="51%"/><stop stop-color="#888B8F" offset="52%"/><stop stop-color="#898C91" offset="53%"/><stop stop-color="#8B8E92" offset="54%"/><stop stop-color="#8D9094" offset="55%"/><stop stop-color="#8F9195" offset="56%"/><stop stop-color="#909397" offset="57%"/><stop stop-color="#929599" offset="58%"/><stop stop-color="#94969A" offset="59%"/><stop stop-color="#95989C" offset="60%"/><stop stop-color="#979A9E" offset="61%"/><stop stop-color="#999B9F" offset="62%"/><stop stop-color="#9A9DA1" offset="63%"/><stop stop-color="#9C9FA3" offset="64%"/><stop stop-color="#9EA0A4" offset="65%"/><stop stop-color="#A0A2A6" offset="66%"/><stop stop-color="#A1A4A8" offset="67%"/><stop stop-color="#A3A5A9" offset="68%"/><stop stop-color="#A5A7AB" offset="69%"/><stop stop-color="#A6A9AC" offset="70%"/><stop stop-color="#A8AAAE" offset="71%"/><stop stop-color="#AAACB0" offset="72%"/><stop stop-color="#ACAEB1" offset="73%"/><stop stop-color="#ADB0B3" offset="74%"/><stop stop-color="#AFB1B5" offset="75%"/><stop stop-color="#B1B3B6" offset="76%"/><stop stop-color="#B2B5B8" offset="77%"/><stop stop-color="#B4B6BA" offset="78%"/><stop stop-color="#B6B8BB" offset="79%"/><stop stop-color="#B7BABD" offset="80%"/><stop stop-color="#B9BBBE" offset="81%"/><stop stop-color="#BBBDC0" offset="82%"/><stop stop-color="#BDBFC2" offset="83%"/><stop stop-color="#BEC0C3" offset="84%"/><stop stop-color="#C0C2C5" offset="85%"/><stop stop-color="#C2C4C7" offset="86%"/><stop stop-color="#C3C5C8" offset="87%"/><stop stop-color="#C5C7CA" offset="88%"/><stop stop-color="#C5C7CA" offset="89%"/><stop stop-color="#C5C7CA" offset="90%"/><stop stop-color="#C5C7CA" offset="91%"/><stop stop-color="#C5C7CA" offset="92%"/><stop stop-color="#C5C7CA" offset="93%"/><stop stop-color="#C5C7CA" offset="94%"/><stop stop-color="#C5C7CA" offset="95%"/><stop stop-color="#C5C7CA" offset="96%"/><stop stop-color="#C5C7CA" offset="97%"/><stop stop-color="#C5C7CA" offset="98%"/><stop stop-color="#C5C7CA" offset="99%"/><stop stop-color="#C5C7CA" offset="100%"/>
    </linearGradient>
    <clipPath  id="6">

    <path id=""  clip-rule="evenodd" transform="matrix(1 0 0 1 0 0)"  d="M332.93216 43.339935L332.92218 42.909943L332.92218 42.909943L332.89316 42.48793L332.89316 42.48793L332.77716 41.66893L332.77716 41.66893L332.58417 40.880936L332.58417 40.880936L332.31317 40.12593L332.31317 40.12593L331.96518 39.40393L331.96518 39.40393L331.53918 38.712936L331.53918 38.712936L331.03616 38.05493L331.03616 38.05493L330.45517 37.42894L330.45517 37.42894L329.82016 36.856934L329.82016 36.856934L329.15216 36.36194L329.15216 36.36194L328.45117 35.942932L328.45117 35.942932L327.71817 35.59993L327.71817 35.59993L326.95117 35.33293L326.95117 35.33293L326.15317 35.141937L326.15317 35.141937L325.32117 35.02794L325.32117 35.02794L324.45718 34.98993L324.45718 34.98993L323.59317 35.02794L323.59317 35.02794L322.76117 35.14293L322.76117 35.14293L321.96317 35.33493L321.96317 35.33493L321.19617 35.60193L321.19617 35.60193L320.46317 35.94693L320.46317 35.94693L319.76218 36.367935L319.76218 36.367935L319.09418 36.865936L319.09418 36.865936L318.45917 37.43994L318.45917 37.43994L317.87817 38.067932L317.87817 38.067932L317.37518 38.72693L317.37518 38.72693L316.94916 39.41794L316.94916 39.41794L316.60117 40.13994L316.60117 40.13994L316.33017 40.89293L316.33017 40.89293L316.13718 41.67694L316.13718 41.67694L316.02118 42.492935L316.02118 42.492935L315.99216 42.912933L315.99216 42.912933L315.98218 43.339935L315.98218 43.339935L315.99216 43.76494L315.99216 43.76494L316.02118 44.18193L316.02118 44.18193L316.13718 44.993942L316.13718 44.993942L316.33017 45.774933L316.33017 45.774933L316.60117 46.52594L316.60117 46.52594L316.94916 47.246933L316.94916 47.246933L317.37518 47.937943L317.37518 47.937943L317.87817 48.598938L317.87817 48.598938L318.45917 49.228943L318.45917 49.228943L319.09418 49.80594L319.09418 49.80594L319.76218 50.30594L319.76218 50.30594L320.46317 50.728943L320.46317 50.728943L321.19617 51.074936L321.19617 51.074936L321.96317 51.343933L321.96317 51.343933L322.76117 51.535934L322.76117 51.535934L323.59317 51.65193L323.59317 51.65193L324.02118 51.67993L324.02118 51.67993L324.45718 51.68994L324.45718 51.68994L325.32117 51.65193L325.32117 51.65193L326.15317 51.53694L326.15317 51.53694L326.95117 51.34494L326.95117 51.34494L327.71817 51.07794L327.71817 51.07794L328.45117 50.73294L328.45117 50.73294L329.15216 50.311935L329.15216 50.311935L329.82016 49.813934L329.82016 49.813934L330.45517 49.23993L330.45517 49.23993L331.03616 48.61194L331.03616 48.61194L331.53918 47.95294L331.53918 47.95294L331.96518 47.261932L331.96518 47.261932L332.31317 46.539932L332.31317 46.539932L332.58417 45.78694L332.58417 45.78694L332.77716 45.00293L332.77716 45.00293L332.89316 44.186935L332.89316 44.186935L332.92218 43.766937L332.92218 43.766937L332.93216 43.339935M334.78217 43.350937L334.77017 43.87294L334.77017 43.87294L334.73517 44.38594L334.73517 44.38594L334.67618 44.88893L334.67618 44.88893L334.59317 45.381943L334.59317 45.381943L334.48718 45.865936L334.48718 45.865936L334.35718 46.339935L334.35718 46.339935L334.2032 46.80493L334.2032 46.80493L334.02618 47.259933L334.02618 47.259933L333.82516 47.70494L333.82516 47.70494L333.60117 48.14093L333.60117 48.14093L333.08118 48.983932L333.08118 48.983932L332.46716 49.787933L332.46716 49.787933L331.75818 50.55394L331.75818 50.55394L330.9832 51.253937L330.9832 51.253937L330.16916 51.85994L330.16916 51.85994L329.31616 52.37294L329.31616 52.37294L328.87418 52.59494L328.87418 52.59494L328.42416 52.79294L328.42416 52.79294L327.96317 52.96794L327.96317 52.96794L327.49316 53.119934L327.49316 53.119934L327.01318 53.24794L327.01318 53.24794L326.52316 53.352936L326.52316 53.352936L326.02417 53.434937L326.02417 53.434937L325.51517 53.492935L325.51517 53.492935L324.9962 53.52794L324.9962 53.52794L324.46817 53.539932L324.46817 53.539932L323.93417 53.52794L323.93417 53.52794L323.41116 53.492935L323.41116 53.492935L322.8972 53.434937L322.8972 53.434937L322.39417 53.352936L322.39417 53.352936L321.90118 53.246933L321.90118 53.246933L321.41818 53.118942L321.41818 53.118942L320.94516 52.965942L320.94516 52.965942L320.48218 52.79094L320.48218 52.79094L320.02917 52.591934L320.02917 52.591934L319.58716 52.368942L319.58716 52.368942L318.73218 51.853943L318.73218 51.853943L317.91818 51.244934L317.91818 51.244934L317.14517 50.54294L317.14517 50.54294L316.43918 49.774933L316.43918 49.774933L315.82718 48.968933L315.82718 48.968933L315.30917 48.12593L315.30917 48.12593L315.08517 47.690933L315.08517 47.690933L314.88516 47.24594L314.88516 47.24594L314.70917 46.79193L314.70917 46.79193L314.55618 46.32794L314.55618 46.32794L314.42618 45.85594L314.42618 45.85594L314.32016 45.37294L314.32016 45.37294L314.23816 44.881943L314.23816 44.881943L314.17917 44.380936L314.17917 44.380936L314.14417 43.87094L314.14417 43.87094L314.13217 43.350937L314.13217 43.350937L314.14417 42.828934L314.14417 42.828934L314.17917 42.315933L314.17917 42.315933L314.23816 41.812943L314.23816 41.812943L314.32016 41.31894L314.32016 41.31894L314.42618 40.83493L314.42618 40.83493L314.55618 40.35994L314.55618 40.35994L314.70917 39.894928L314.70917 39.894928L314.88516 39.438934L314.88516 39.438934L315.08517 38.992935L315.08517 38.992935L315.30917 38.55693L315.30917 38.55693L315.82718 37.71193L315.82718 37.71193L316.43918 36.90593L316.43918 36.90593L317.14517 36.136932L317.14517 36.136932L317.91818 35.434937L317.91818 35.434937L318.73218 34.825928L318.73218 34.825928L319.58716 34.31093L319.58716 34.31093L320.02917 34.087936L320.02917 34.087936L320.48218 33.88893L320.48218 33.88893L320.94516 33.71393L320.94516 33.71393L321.41818 33.56093L321.41818 33.56093L321.90118 33.432938L321.90118 33.432938L322.39417 33.326935L322.39417 33.326935L322.8972 33.244934L322.8972 33.244934L323.41116 33.186935L323.41116 33.186935L323.93417 33.15193L323.93417 33.15193L324.46817 33.13994L324.46817 33.13994L324.9962 33.15193L324.9962 33.15193L325.51517 33.186935L325.51517 33.186935L326.02417 33.244934L326.02417 33.244934L326.52316 33.326935L326.52316 33.326935L327.01318 33.43193L327.01318 33.43193L327.49316 33.559937L327.49316 33.559937L327.96317 33.71193L327.96317 33.71193L328.42416 33.886932L328.42416 33.886932L328.87418 34.08493L328.87418 34.08493L329.31616 34.30693L329.31616 34.30693L330.16916 34.81993L330.16916 34.81993L330.9832 35.425934L330.9832 35.425934L331.75818 36.12593L331.75818 36.12593L332.46716 36.891937L332.46716 36.891937L333.08118 37.697937L333.08118 37.697937L333.60117 38.54193L333.60117 38.54193L333.82516 38.978943L333.82516 38.978943L334.02618 39.425934L334.02618 39.425934L334.2032 39.881943L334.2032 39.881943L334.35718 40.34793L334.35718 40.34793L334.48718 40.82393L334.48718 40.82393L334.59317 41.309937L334.59317 41.309937L334.67618 41.80594L334.67618 41.80594L334.73517 42.31093L334.73517 42.31093L334.77017 42.825928L334.77017 42.825928L334.78217 43.350937z" />    </clipPath>
    <linearGradient gradientUnits="userSpaceOnUse"  transform="matrix(1 0 0 1 0 0)"  id="34087" x1="338.03217" y1="141.36006" x2="338.03217" y2="35.76007"><stop stop-color="#53575C" offset="0%"/><stop stop-color="#53575C" offset="1%"/><stop stop-color="#53575C" offset="2%"/><stop stop-color="#53575C" offset="3%"/><stop stop-color="#53575C" offset="4%"/><stop stop-color="#53575C" offset="5%"/><stop stop-color="#53575C" offset="6%"/><stop stop-color="#53575C" offset="7%"/><stop stop-color="#53575C" offset="8%"/><stop stop-color="#53575C" offset="9%"/><stop stop-color="#53575C" offset="10%"/><stop stop-color="#53575C" offset="11%"/><stop stop-color="#53575C" offset="12%"/><stop stop-color="#53575C" offset="13%"/><stop stop-color="#53575C" offset="14%"/><stop stop-color="#53575C" offset="15%"/><stop stop-color="#53575C" offset="16%"/><stop stop-color="#53575C" offset="17%"/><stop stop-color="#53575C" offset="18%"/><stop stop-color="#53575C" offset="19%"/><stop stop-color="#53575C" offset="20%"/><stop stop-color="#53575C" offset="21%"/><stop stop-color="#55595E" offset="22%"/><stop stop-color="#565A5F" offset="23%"/><stop stop-color="#585C61" offset="24%"/><stop stop-color="#5A5E63" offset="25%"/><stop stop-color="#5B5F64" offset="26%"/><stop stop-color="#5D6166" offset="27%"/><stop stop-color="#5F6368" offset="28%"/><stop stop-color="#616469" offset="29%"/><stop stop-color="#62666B" offset="30%"/><stop stop-color="#64686C" offset="31%"/><stop stop-color="#66696E" offset="32%"/><stop stop-color="#676B70" offset="33%"/><stop stop-color="#696D71" offset="34%"/><stop stop-color="#6B6E73" offset="35%"/><stop stop-color="#6C7075" offset="36%"/><stop stop-color="#6E7276" offset="37%"/><stop stop-color="#707378" offset="38%"/><stop stop-color="#72757A" offset="39%"/><stop stop-color="#73777B" offset="40%"/><stop stop-color="#75787D" offset="41%"/><stop stop-color="#777A7F" offset="42%"/><stop stop-color="#787C80" offset="43%"/><stop stop-color="#7A7D82" offset="44%"/><stop stop-color="#7C7F83" offset="45%"/><stop stop-color="#7E8185" offset="46%"/><stop stop-color="#7F8287" offset="47%"/><stop stop-color="#818488" offset="48%"/><stop stop-color="#83868A" offset="49%"/><stop stop-color="#84878C" offset="50%"/><stop stop-color="#86898D" offset="51%"/><stop stop-color="#888B8F" offset="52%"/><stop stop-color="#898C91" offset="53%"/><stop stop-color="#8B8E92" offset="54%"/><stop stop-color="#8D9094" offset="55%"/><stop stop-color="#8F9195" offset="56%"/><stop stop-color="#909397" offset="57%"/><stop stop-color="#929599" offset="58%"/><stop stop-color="#94969A" offset="59%"/><stop stop-color="#95989C" offset="60%"/><stop stop-color="#979A9E" offset="61%"/><stop stop-color="#999B9F" offset="62%"/><stop stop-color="#9A9DA1" offset="63%"/><stop stop-color="#9C9FA3" offset="64%"/><stop stop-color="#9EA0A4" offset="65%"/><stop stop-color="#A0A2A6" offset="66%"/><stop stop-color="#A1A4A8" offset="67%"/><stop stop-color="#A3A5A9" offset="68%"/><stop stop-color="#A5A7AB" offset="69%"/><stop stop-color="#A6A9AC" offset="70%"/><stop stop-color="#A8AAAE" offset="71%"/><stop stop-color="#AAACB0" offset="72%"/><stop stop-color="#ACAEB1" offset="73%"/><stop stop-color="#ADB0B3" offset="74%"/><stop stop-color="#AFB1B5" offset="75%"/><stop stop-color="#B1B3B6" offset="76%"/><stop stop-color="#B2B5B8" offset="77%"/><stop stop-color="#B4B6BA" offset="78%"/><stop stop-color="#B6B8BB" offset="79%"/><stop stop-color="#B7BABD" offset="80%"/><stop stop-color="#B9BBBE" offset="81%"/><stop stop-color="#BBBDC0" offset="82%"/><stop stop-color="#BDBFC2" offset="83%"/><stop stop-color="#BEC0C3" offset="84%"/><stop stop-color="#C0C2C5" offset="85%"/><stop stop-color="#C2C4C7" offset="86%"/><stop stop-color="#C3C5C8" offset="87%"/><stop stop-color="#C5C7CA" offset="88%"/><stop stop-color="#C5C7CA" offset="89%"/><stop stop-color="#C5C7CA" offset="90%"/><stop stop-color="#C5C7CA" offset="91%"/><stop stop-color="#C5C7CA" offset="92%"/><stop stop-color="#C5C7CA" offset="93%"/><stop stop-color="#C5C7CA" offset="94%"/><stop stop-color="#C5C7CA" offset="95%"/><stop stop-color="#C5C7CA" offset="96%"/><stop stop-color="#C5C7CA" offset="97%"/><stop stop-color="#C5C7CA" offset="98%"/><stop stop-color="#C5C7CA" offset="99%"/><stop stop-color="#C5C7CA" offset="100%"/>
    </linearGradient>
    <clipPath  id="7">

    <path id=""  clip-rule="evenodd" transform="matrix(1 0 0 1 0 0)"  d="M315.83218 91.98993L315.83218 107.40494L315.83218 107.40494L314.80017 107.954926L314.80017 107.954926L313.76917 108.47095L313.76917 108.47095L312.73917 108.95093L312.73917 108.95093L311.70917 109.39694L311.70917 109.39694L310.68018 109.80893L310.68018 109.80893L309.65216 110.18494L309.65216 110.18494L308.62418 110.52594L308.62418 110.52594L307.59717 110.83295L307.59717 110.83295L306.57117 111.10394L306.57117 111.10394L305.54517 111.33893L305.54517 111.33893L304.52017 111.53793L304.52017 111.53793L303.4962 111.70093L303.4962 111.70093L302.47217 111.826935L302.47217 111.826935L301.44916 111.91794L301.44916 111.91794L300.4272 111.971924L300.4272 111.971924L299.40518 111.98993L299.40518 111.98993L297.97617 111.96292L297.97617 111.96292L296.59018 111.882935L296.59018 111.882935L295.24817 111.747925L295.24817 111.747925L293.95016 111.55994L293.95016 111.55994L292.69516 111.31894L292.69516 111.31894L291.48416 111.02295L291.48416 111.02295L290.31717 110.67395L290.31717 110.67395L289.19318 110.270935L289.19318 110.270935L288.11218 109.81995L288.11218 109.81995L287.07416 109.32593L287.07416 109.32593L286.0782 108.78894L286.0782 108.78894L285.12418 108.20892L285.12418 108.20892L284.21216 107.58594L284.21216 107.58594L283.34317 106.91992L283.34317 106.91992L282.51617 106.21094L282.51617 106.21094L281.73218 105.45892L281.73218 105.45892L280.99017 104.67395L280.99017 104.67395L280.29016 103.86594L280.29016 103.86594L279.63318 103.03595L279.63318 103.03595L279.01816 102.181946L279.01816 102.181946L278.44516 101.30594L278.44516 101.30594L277.91418 100.40692L277.91418 100.40692L277.42618 99.48593L277.42618 99.48593L276.98016 98.540924L276.98016 98.540924L276.58218 97.55295L276.58218 97.55295L276.23718 96.49994L276.23718 96.49994L275.94516 95.382935L275.94516 95.382935L275.70718 94.201935L275.70718 94.201935L275.52118 92.95593L275.52118 92.95593L275.38818 91.64493L275.38818 91.64493L275.30917 90.26993L275.30917 90.26993L275.28217 88.83093L275.28217 88.83093L275.28217 82.21292L275.28217 82.21292L275.29416 81.47293L275.29416 81.47293L275.3282 80.73593L275.3282 80.73593L275.38617 80.000946L275.38617 80.000946L275.4662 79.26892L275.4662 79.26892L275.57016 78.53894L275.57016 78.53894L275.69717 77.81192L275.69717 77.81192L275.84717 77.086945L275.84717 77.086945L276.02017 76.36392L276.02017 76.36392L276.43417 74.92694L276.43417 74.92694L276.94116 73.49994L276.94116 73.49994L277.54117 72.08295L277.54117 72.08295L278.23218 70.67694L278.23218 70.67694L279.00317 69.31595L279.00317 69.31595L279.84317 68.03793L279.84317 68.03793L280.75018 66.842926L280.75018 66.842926L281.72617 65.72995L281.72617 65.72995L282.23917 65.204926L282.23917 65.204926L282.76917 64.69992L282.76917 64.69992L283.31616 64.21594L283.31616 64.21594L283.88016 63.751923L283.88016 63.751923L284.46118 63.309937L284.46118 63.309937L285.05917 62.886932L285.05917 62.886932L285.67517 62.48593L285.67517 62.48593L286.30716 62.10495L286.30716 62.10495L287.60217 61.409943L287.60217 61.409943L288.92517 60.807922L288.92517 60.807922L289.59818 60.54094L289.59818 60.54094L290.27716 60.297928L290.27716 60.297928L290.96417 60.07794L290.96417 60.07794L291.65817 59.880936L291.65817 59.880936L292.3582 59.70694L292.3582 59.70694L293.06616 59.55693L293.06616 59.55693L293.78116 59.42993L293.78116 59.42993L294.50317 59.324936L294.50317 59.324936L295.23218 59.243942L295.23218 59.243942L295.96817 59.18593L295.96817 59.18593L296.71118 59.15193L296.71118 59.15193L297.46118 59.13994L297.46118 59.13994L298.54318 59.158936L298.54318 59.158936L299.60416 59.21393L299.60416 59.21393L300.64417 59.30693L300.64417 59.30693L301.66217 59.437943L301.66217 59.437943L302.6602 59.604935L302.6602 59.604935L303.63617 59.809937L303.63617 59.809937L304.5912 60.05194L304.5912 60.05194L305.52518 60.330933L305.52518 60.330933L306.43716 60.646942L306.43716 60.646942L307.32916 60.99994L307.32916 60.99994L308.19916 61.39093L308.19916 61.39093L309.04816 61.81894L309.04816 61.81894L309.87616 62.283936L309.87616 62.283936L310.68216 62.78595L310.68216 62.78595L311.46817 63.325928L311.46817 63.325928L312.23218 63.901947L312.23218 63.901947L312.24118 62.95395L312.24118 62.95395L312.26917 62.214935L312.26917 62.214935L312.31616 61.684937L312.31616 61.684937L312.38217 61.36493L312.38217 61.36493L312.47617 61.15692L312.47617 61.15692L312.61118 60.961945L312.61118 60.961945L312.78616 60.780945L312.78616 60.780945L313.00116 60.612946L313.00116 60.612946L313.24316 60.470932L313.24316 60.470932L313.50116 60.37094L313.50116 60.37094L313.77316 60.309937L313.77316 60.309937L314.06116 60.289932L314.06116 60.289932L314.42416 60.324936L314.42416 60.324936L314.75616 60.42993L314.75616 60.42993L315.05716 60.60495L315.05716 60.60495L315.32617 60.849945L315.32617 60.849945L315.54718 61.174927L315.54718 61.174927L315.70517 61.59195L315.70517 61.59195L315.80017 62.10092L315.80017 62.10092L315.83218 62.700928L315.83218 62.700928L315.83218 70.87894L315.83218 70.87894L315.80017 71.49695L315.80017 71.49695L315.70618 72.01492L315.70618 72.01492L315.54718 72.43292L315.54718 72.43292L315.44516 72.60495L315.44516 72.60495L315.32617 72.75192L315.32617 72.75192L315.05716 72.98694L315.05716 72.98694L314.75717 73.155945L314.75717 73.155945L314.42517 73.25592L314.42517 73.25592L314.06116 73.28995L314.06116 73.28995L313.71716 73.25894L313.71716 73.25894L313.40216 73.165924L313.40216 73.165924L313.11618 73.010925L313.11618 73.010925L312.85916 72.79492L312.85916 72.79492L312.64417 72.49994L312.64417 72.49994L312.48517 72.11093L312.48517 72.11093L312.38116 71.62793L312.38116 71.62793L312.33218 71.050934L312.33218 71.050934L312.28116 70.59894L312.28116 70.59894L312.19818 70.15692L312.19818 70.15692L312.08118 69.724945L312.08118 69.724945L311.93118 69.303925L311.93118 69.303925L311.74918 68.89392L311.74918 68.89392L311.53317 68.49393L311.53317 68.49393L311.28418 68.10394L311.28418 68.10394L311.00217 67.72394L311.00217 67.72394L310.68716 67.35593L310.68716 67.35593L310.33917 66.99695L310.33917 66.99695L309.95816 66.648926L309.95816 66.648926L309.54416 66.31094L309.54416 66.31094L309.09616 65.98395L309.09616 65.98395L308.61618 65.66794L308.61618 65.66794L307.55716 65.06494L307.55716 65.06494L306.41818 64.51993L306.41818 64.51993L305.25516 64.04794L305.25516 64.04794L304.06818 63.64795L304.06818 63.64795L302.85516 63.320923L302.85516 63.320923L301.61716 63.066925L301.61716 63.066925L300.35516 62.88495L300.35516 62.88495L299.06717 62.77594L299.06717 62.77594L297.75516 62.73993L297.75516 62.73993L296.52017 62.773926L296.52017 62.773926L295.31616 62.875946L295.31616 62.875946L294.14218 63.04492L294.14218 63.04492L292.99918 63.28293L292.99918 63.28293L291.88617 63.58792L291.88617 63.58792L290.80316 63.960938L290.80316 63.960938L289.75018 64.40195L289.75018 64.40195L288.72818 64.91095L288.72818 64.91095L288.22617 65.19693L288.22617 65.19693L287.72916 65.51492L287.72916 65.51492L287.23618 65.862946L287.23618 65.862946L286.74716 66.24194L286.74716 66.24194L285.78217 67.09195L285.78217 67.09195L284.83417 68.06494L284.83417 68.06494L283.90216 69.15994L283.90216 69.15994L282.98718 70.37894L282.98718 70.37894L282.09018 71.72095L282.09018 71.72095L281.20917 73.18494L281.20917 73.18494L280.66318 74.201935L280.66318 74.201935L280.19116 75.250946L280.19116 75.250946L279.79117 76.33493L279.79117 76.33493L279.46417 77.451935L279.46417 77.451935L279.20917 78.60193L279.20917 78.60193L279.02716 79.78595L279.02716 79.78595L278.91818 81.00394L278.91818 81.00394L278.88217 82.254944L278.88217 82.254944L278.88217 88.83194L278.88217 88.83194L278.90417 89.94095L278.90417 89.94095L278.96817 91.01993L278.96817 91.01993L279.07617 92.07092L279.07617 92.07092L279.22717 93.092926L279.22717 93.092926L279.42117 94.08594L279.42117 94.08594L279.65817 95.04993L279.65817 95.04993L279.93817 95.984924L279.93817 95.984924L280.26117 96.89194L280.26117 96.89194L280.62717 97.76892L280.62717 97.76892L281.03616 98.61795L281.03616 98.61795L281.48917 99.43692L281.48917 99.43692L281.98416 100.227936L281.98416 100.227936L282.52316 100.98993L282.52316 100.98993L283.10516 101.72293L283.10516 101.72293L283.72916 102.42795L283.72916 102.42795L284.3972 103.102936L284.3972 103.102936L285.10318 103.74295L285.10318 103.74295L285.8412 104.34195L285.8412 104.34195L286.61218 104.89993L286.61218 104.89993L287.41617 105.415924L287.41617 105.415924L288.25217 105.89093L288.25217 105.89093L289.1212 106.32492L289.1212 106.32492L290.02316 106.71695L290.02316 106.71695L290.95718 107.06793L290.95718 107.06793L291.92416 107.37793L291.92416 107.37793L292.92416 107.645935L292.92416 107.645935L293.95618 107.87393L293.95618 107.87393L295.02118 108.05994L295.02118 108.05994L296.11816 108.20395L296.11816 108.20395L297.24918 108.306946L297.24918 108.306946L298.41217 108.36893L298.41217 108.36893L299.60718 108.38992L299.60718 108.38992L300.41818 108.37894L300.41818 108.37894L301.21518 108.346924L301.21518 108.346924L301.99716 108.293945L301.99716 108.293945L302.76318 108.21893L302.76318 108.21893L303.51617 108.12195L303.51617 108.12195L304.25317 108.004944L304.25317 108.004944L304.97516 107.86493L304.97516 107.86493L305.68317 107.704926L305.68317 107.704926L307.14218 107.29794L307.14218 107.29794L308.72116 106.76294L308.72116 106.76294L310.41718 106.09894L310.41718 106.09894L312.23218 105.30594L312.23218 105.30594L312.23218 91.88992L312.23218 91.88992L299.88217 91.88992L299.88217 91.88992L299.2722 91.859924L299.2722 91.859924L298.75516 91.767944L298.75516 91.767944L298.33218 91.61694L298.33218 91.61694L298.00116 91.40393L298.00116 91.40393L297.75217 91.14093L297.75217 91.14093L297.57416 90.83893L297.57416 90.83893L297.46817 90.49695L297.46817 90.49695L297.43216 90.11493L297.43216 90.11493L297.46817 89.72995L297.46817 89.72995L297.57416 89.382935L297.57416 89.382935L297.75217 89.07294L297.75217 89.07294L298.00116 88.79895L298.00116 88.79895L298.15518 88.67993L298.15518 88.67993L298.33218 88.576935L298.33218 88.576935L298.75516 88.41693L298.75516 88.41693L299.2722 88.32193L299.2722 88.32193L299.88217 88.28995L299.88217 88.28995L317.13217 88.38992L317.13217 88.38992L317.72916 88.42093L317.72916 88.42093L318.23618 88.51294L318.23618 88.51294L318.65118 88.66693L318.65118 88.66693L318.97516 88.882935L318.97516 88.882935L319.21918 89.14993L319.21918 89.14993L319.39316 89.45593L319.39316 89.45593L319.49716 89.80295L319.49716 89.80295L319.53217 90.18994L319.53217 90.18994L319.51117 90.46292L319.51117 90.46292L319.44617 90.72592L319.44617 90.72592L319.33817 90.97693L319.33817 90.97693L319.18817 91.21893L319.18817 91.21893L319.01016 91.43393L319.01016 91.43393L318.82217 91.609924L318.82217 91.609924L318.62317 91.744934L318.62317 91.744934L318.41318 91.839935L318.41318 91.839935L318.09018 91.905945L318.09018 91.905945L317.55316 91.951935L317.55316 91.951935L316.80017 91.98093L316.80017 91.98093L315.83218 91.98993" />    </clipPath>
    <linearGradient gradientUnits="userSpaceOnUse"  transform="matrix(1 0 0 1 0 0)"  id="49284" x1="403.63217" y1="83.61006" x2="403.63217" y2="-21.98993"><stop stop-color="#53575C" offset="0%"/><stop stop-color="#53575C" offset="1%"/><stop stop-color="#53575C" offset="2%"/><stop stop-color="#53575C" offset="3%"/><stop stop-color="#53575C" offset="4%"/><stop stop-color="#53575C" offset="5%"/><stop stop-color="#53575C" offset="6%"/><stop stop-color="#53575C" offset="7%"/><stop stop-color="#53575C" offset="8%"/><stop stop-color="#53575C" offset="9%"/><stop stop-color="#53575C" offset="10%"/><stop stop-color="#53575C" offset="11%"/><stop stop-color="#53575C" offset="12%"/><stop stop-color="#53575C" offset="13%"/><stop stop-color="#53575C" offset="14%"/><stop stop-color="#53575C" offset="15%"/><stop stop-color="#53575C" offset="16%"/><stop stop-color="#53575C" offset="17%"/><stop stop-color="#53575C" offset="18%"/><stop stop-color="#53575C" offset="19%"/><stop stop-color="#53575C" offset="20%"/><stop stop-color="#53575C" offset="21%"/><stop stop-color="#55595E" offset="22%"/><stop stop-color="#565A5F" offset="23%"/><stop stop-color="#585C61" offset="24%"/><stop stop-color="#5A5E63" offset="25%"/><stop stop-color="#5B5F64" offset="26%"/><stop stop-color="#5D6166" offset="27%"/><stop stop-color="#5F6368" offset="28%"/><stop stop-color="#616469" offset="29%"/><stop stop-color="#62666B" offset="30%"/><stop stop-color="#64686C" offset="31%"/><stop stop-color="#66696E" offset="32%"/><stop stop-color="#676B70" offset="33%"/><stop stop-color="#696D71" offset="34%"/><stop stop-color="#6B6E73" offset="35%"/><stop stop-color="#6C7075" offset="36%"/><stop stop-color="#6E7276" offset="37%"/><stop stop-color="#707378" offset="38%"/><stop stop-color="#72757A" offset="39%"/><stop stop-color="#73777B" offset="40%"/><stop stop-color="#75787D" offset="41%"/><stop stop-color="#777A7F" offset="42%"/><stop stop-color="#787C80" offset="43%"/><stop stop-color="#7A7D82" offset="44%"/><stop stop-color="#7C7F83" offset="45%"/><stop stop-color="#7E8185" offset="46%"/><stop stop-color="#7F8287" offset="47%"/><stop stop-color="#818488" offset="48%"/><stop stop-color="#83868A" offset="49%"/><stop stop-color="#84878C" offset="50%"/><stop stop-color="#86898D" offset="51%"/><stop stop-color="#888B8F" offset="52%"/><stop stop-color="#898C91" offset="53%"/><stop stop-color="#8B8E92" offset="54%"/><stop stop-color="#8D9094" offset="55%"/><stop stop-color="#8F9195" offset="56%"/><stop stop-color="#909397" offset="57%"/><stop stop-color="#929599" offset="58%"/><stop stop-color="#94969A" offset="59%"/><stop stop-color="#95989C" offset="60%"/><stop stop-color="#979A9E" offset="61%"/><stop stop-color="#999B9F" offset="62%"/><stop stop-color="#9A9DA1" offset="63%"/><stop stop-color="#9C9FA3" offset="64%"/><stop stop-color="#9EA0A4" offset="65%"/><stop stop-color="#A0A2A6" offset="66%"/><stop stop-color="#A1A4A8" offset="67%"/><stop stop-color="#A3A5A9" offset="68%"/><stop stop-color="#A5A7AB" offset="69%"/><stop stop-color="#A6A9AC" offset="70%"/><stop stop-color="#A8AAAE" offset="71%"/><stop stop-color="#AAACB0" offset="72%"/><stop stop-color="#ACAEB1" offset="73%"/><stop stop-color="#ADB0B3" offset="74%"/><stop stop-color="#AFB1B5" offset="75%"/><stop stop-color="#B1B3B6" offset="76%"/><stop stop-color="#B2B5B8" offset="77%"/><stop stop-color="#B4B6BA" offset="78%"/><stop stop-color="#B6B8BB" offset="79%"/><stop stop-color="#B7BABD" offset="80%"/><stop stop-color="#B9BBBE" offset="81%"/><stop stop-color="#BBBDC0" offset="82%"/><stop stop-color="#BDBFC2" offset="83%"/><stop stop-color="#BEC0C3" offset="84%"/><stop stop-color="#C0C2C5" offset="85%"/><stop stop-color="#C2C4C7" offset="86%"/><stop stop-color="#C3C5C8" offset="87%"/><stop stop-color="#C5C7CA" offset="88%"/><stop stop-color="#C5C7CA" offset="89%"/><stop stop-color="#C5C7CA" offset="90%"/><stop stop-color="#C5C7CA" offset="91%"/><stop stop-color="#C5C7CA" offset="92%"/><stop stop-color="#C5C7CA" offset="93%"/><stop stop-color="#C5C7CA" offset="94%"/><stop stop-color="#C5C7CA" offset="95%"/><stop stop-color="#C5C7CA" offset="96%"/><stop stop-color="#C5C7CA" offset="97%"/><stop stop-color="#C5C7CA" offset="98%"/><stop stop-color="#C5C7CA" offset="99%"/><stop stop-color="#C5C7CA" offset="100%"/>
    </linearGradient>
    <clipPath  id="8">

    <path id=""  clip-rule="evenodd" transform="matrix(1 0 0 1 0 0)"  d="M345.18216 110.589935L342.7562 110.589935L342.7562 110.589935L329.18216 87.53995L329.18216 87.53995L329.18216 108.73993L329.18216 108.73993L332.58218 108.73993L332.58218 108.73993L332.8972 108.75592L332.8972 108.75592L333.16318 108.80295L333.16318 108.80295L333.38016 108.88193L333.38016 108.88193L333.54718 108.99295L333.54718 108.99295L333.67218 109.129944L333.67218 109.129944L333.76117 109.28793L333.76117 109.28793L333.81418 109.46594L333.81418 109.46594L333.83218 109.66495L333.83218 109.66495L333.81418 109.85495L333.81418 109.85495L333.76117 110.02792L333.76117 110.02792L333.67218 110.18494L333.67218 110.18494L333.54718 110.32593L333.54718 110.32593L333.38016 110.44095L333.38016 110.44095L333.16318 110.523926L333.16318 110.523926L332.8972 110.57294L332.8972 110.57294L332.58218 110.589935L332.58218 110.589935L325.78217 110.589935L325.78217 110.589935L325.46716 110.57294L325.46716 110.57294L325.20117 110.523926L325.20117 110.523926L324.98416 110.44095L324.98416 110.44095L324.81717 110.32593L324.81717 110.32593L324.69217 110.18494L324.69217 110.18494L324.60318 110.02792L324.60318 110.02792L324.55017 109.85495L324.55017 109.85495L324.53217 109.66495L324.53217 109.66495L324.55017 109.46594L324.55017 109.46594L324.60318 109.28793L324.60318 109.28793L324.69217 109.129944L324.69217 109.129944L324.81717 108.99295L324.81717 108.99295L324.98416 108.88193L324.98416 108.88193L325.20117 108.80295L325.20117 108.80295L325.46716 108.75592L325.46716 108.75592L325.78217 108.73993L325.78217 108.73993L327.33218 108.73993L327.33218 108.73993L327.33218 86.68994L327.33218 86.68994L324.88217 86.68994L324.88217 86.68994L324.57117 86.67395L324.57117 86.67395L324.30716 86.62692L324.30716 86.62692L324.0912 86.54794L324.0912 86.54794L323.92218 86.43692L323.92218 86.43692L323.79517 86.29993L323.79517 86.29993L323.70517 86.14194L323.70517 86.14194L323.65018 85.96393L323.65018 85.96393L323.63217 85.76492L323.63217 85.76492L323.65018 85.56595L323.65018 85.56595L323.70517 85.38794L323.70517 85.38794L323.79517 85.22995L323.79517 85.22995L323.92218 85.092926L323.92218 85.092926L324.0912 84.98193L324.0912 84.98193L324.30716 84.90292L324.30716 84.90292L324.57117 84.85593L324.57117 84.85593L324.88217 84.839935L324.88217 84.839935L329.72818 84.839935L329.72818 84.839935L343.33218 107.93994L343.33218 107.93994L343.33218 86.68994L343.33218 86.68994L339.93216 86.68994L339.93216 86.68994L339.6212 86.67395L339.6212 86.67395L339.35715 86.62692L339.35715 86.62692L339.14114 86.54794L339.14114 86.54794L338.97217 86.43692L338.97217 86.43692L338.84518 86.29993L338.84518 86.29993L338.75516 86.14194L338.75516 86.14194L338.70016 85.96393L338.70016 85.96393L338.68216 85.76492L338.68216 85.76492L338.69916 85.56595L338.69916 85.56595L338.75217 85.38794L338.75217 85.38794L338.83917 85.22995L338.83917 85.22995L338.96118 85.092926L338.96118 85.092926L339.12616 84.98193L339.12616 84.98193L339.34317 84.90292L339.34317 84.90292L339.61215 84.85593L339.61215 84.85593L339.93216 84.839935L339.93216 84.839935L346.73215 84.839935L346.73215 84.839935L347.04318 84.85593L347.04318 84.85593L347.30716 84.90292L347.30716 84.90292L347.52316 84.98193L347.52316 84.98193L347.69217 85.092926L347.69217 85.092926L347.81918 85.22995L347.81918 85.22995L347.90915 85.38794L347.90915 85.38794L347.96414 85.56595L347.96414 85.56595L347.98215 85.76492L347.98215 85.76492L347.96414 85.96393L347.96414 85.96393L347.90915 86.14194L347.90915 86.14194L347.81918 86.29993L347.81918 86.29993L347.69217 86.43692L347.69217 86.43692L347.52316 86.54794L347.52316 86.54794L347.30716 86.62692L347.30716 86.62692L347.04318 86.67395L347.04318 86.67395L346.73215 86.68994L346.73215 86.68994L345.18216 86.68994L345.18216 86.68994L345.18216 110.589935" />    </clipPath>
    <linearGradient gradientUnits="userSpaceOnUse"  transform="matrix(1 0 0 1 0 0)"  id="57417" x1="403.63217" y1="83.61006" x2="403.63217" y2="-21.98993"><stop stop-color="#53575C" offset="0%"/><stop stop-color="#53575C" offset="1%"/><stop stop-color="#53575C" offset="2%"/><stop stop-color="#53575C" offset="3%"/><stop stop-color="#53575C" offset="4%"/><stop stop-color="#53575C" offset="5%"/><stop stop-color="#53575C" offset="6%"/><stop stop-color="#53575C" offset="7%"/><stop stop-color="#53575C" offset="8%"/><stop stop-color="#53575C" offset="9%"/><stop stop-color="#53575C" offset="10%"/><stop stop-color="#53575C" offset="11%"/><stop stop-color="#53575C" offset="12%"/><stop stop-color="#53575C" offset="13%"/><stop stop-color="#53575C" offset="14%"/><stop stop-color="#53575C" offset="15%"/><stop stop-color="#53575C" offset="16%"/><stop stop-color="#53575C" offset="17%"/><stop stop-color="#53575C" offset="18%"/><stop stop-color="#53575C" offset="19%"/><stop stop-color="#53575C" offset="20%"/><stop stop-color="#53575C" offset="21%"/><stop stop-color="#55595E" offset="22%"/><stop stop-color="#565A5F" offset="23%"/><stop stop-color="#585C61" offset="24%"/><stop stop-color="#5A5E63" offset="25%"/><stop stop-color="#5B5F64" offset="26%"/><stop stop-color="#5D6166" offset="27%"/><stop stop-color="#5F6368" offset="28%"/><stop stop-color="#616469" offset="29%"/><stop stop-color="#62666B" offset="30%"/><stop stop-color="#64686C" offset="31%"/><stop stop-color="#66696E" offset="32%"/><stop stop-color="#676B70" offset="33%"/><stop stop-color="#696D71" offset="34%"/><stop stop-color="#6B6E73" offset="35%"/><stop stop-color="#6C7075" offset="36%"/><stop stop-color="#6E7276" offset="37%"/><stop stop-color="#707378" offset="38%"/><stop stop-color="#72757A" offset="39%"/><stop stop-color="#73777B" offset="40%"/><stop stop-color="#75787D" offset="41%"/><stop stop-color="#777A7F" offset="42%"/><stop stop-color="#787C80" offset="43%"/><stop stop-color="#7A7D82" offset="44%"/><stop stop-color="#7C7F83" offset="45%"/><stop stop-color="#7E8185" offset="46%"/><stop stop-color="#7F8287" offset="47%"/><stop stop-color="#818488" offset="48%"/><stop stop-color="#83868A" offset="49%"/><stop stop-color="#84878C" offset="50%"/><stop stop-color="#86898D" offset="51%"/><stop stop-color="#888B8F" offset="52%"/><stop stop-color="#898C91" offset="53%"/><stop stop-color="#8B8E92" offset="54%"/><stop stop-color="#8D9094" offset="55%"/><stop stop-color="#8F9195" offset="56%"/><stop stop-color="#909397" offset="57%"/><stop stop-color="#929599" offset="58%"/><stop stop-color="#94969A" offset="59%"/><stop stop-color="#95989C" offset="60%"/><stop stop-color="#979A9E" offset="61%"/><stop stop-color="#999B9F" offset="62%"/><stop stop-color="#9A9DA1" offset="63%"/><stop stop-color="#9C9FA3" offset="64%"/><stop stop-color="#9EA0A4" offset="65%"/><stop stop-color="#A0A2A6" offset="66%"/><stop stop-color="#A1A4A8" offset="67%"/><stop stop-color="#A3A5A9" offset="68%"/><stop stop-color="#A5A7AB" offset="69%"/><stop stop-color="#A6A9AC" offset="70%"/><stop stop-color="#A8AAAE" offset="71%"/><stop stop-color="#AAACB0" offset="72%"/><stop stop-color="#ACAEB1" offset="73%"/><stop stop-color="#ADB0B3" offset="74%"/><stop stop-color="#AFB1B5" offset="75%"/><stop stop-color="#B1B3B6" offset="76%"/><stop stop-color="#B2B5B8" offset="77%"/><stop stop-color="#B4B6BA" offset="78%"/><stop stop-color="#B6B8BB" offset="79%"/><stop stop-color="#B7BABD" offset="80%"/><stop stop-color="#B9BBBE" offset="81%"/><stop stop-color="#BBBDC0" offset="82%"/><stop stop-color="#BDBFC2" offset="83%"/><stop stop-color="#BEC0C3" offset="84%"/><stop stop-color="#C0C2C5" offset="85%"/><stop stop-color="#C2C4C7" offset="86%"/><stop stop-color="#C3C5C8" offset="87%"/><stop stop-color="#C5C7CA" offset="88%"/><stop stop-color="#C5C7CA" offset="89%"/><stop stop-color="#C5C7CA" offset="90%"/><stop stop-color="#C5C7CA" offset="91%"/><stop stop-color="#C5C7CA" offset="92%"/><stop stop-color="#C5C7CA" offset="93%"/><stop stop-color="#C5C7CA" offset="94%"/><stop stop-color="#C5C7CA" offset="95%"/><stop stop-color="#C5C7CA" offset="96%"/><stop stop-color="#C5C7CA" offset="97%"/><stop stop-color="#C5C7CA" offset="98%"/><stop stop-color="#C5C7CA" offset="99%"/><stop stop-color="#C5C7CA" offset="100%"/>
    </linearGradient>
    <clipPath  id="9">

    <path id=""  clip-rule="evenodd" transform="matrix(1 0 0 1 0 0)"  d="M368.4592 100.13992L363.38217 86.68994L363.38217 86.68994L362.73215 86.68994L362.73215 86.68994L357.79214 100.13992L357.79214 100.13992L368.4592 100.13992M369.15817 101.98993L357.1132 101.98993L357.1132 101.98993L354.6342 108.73993L354.6342 108.73993L358.0322 108.73993L358.0322 108.73993L358.34317 108.75592L358.34317 108.75592L358.60715 108.80295L358.60715 108.80295L358.82315 108.88193L358.82315 108.88193L358.99216 108.99295L358.99216 108.99295L359.11917 109.129944L359.11917 109.129944L359.2092 109.28793L359.2092 109.28793L359.2642 109.46594L359.2642 109.46594L359.2822 109.66495L359.2822 109.66495L359.2642 109.85495L359.2642 109.85495L359.2092 110.02792L359.2092 110.02792L359.11917 110.18494L359.11917 110.18494L358.99216 110.32593L358.99216 110.32593L358.82315 110.44095L358.82315 110.44095L358.60715 110.523926L358.60715 110.523926L358.34317 110.57294L358.34317 110.57294L358.0322 110.589935L358.0322 110.589935L351.5322 110.589935L351.5322 110.589935L351.22116 110.57294L351.22116 110.57294L350.95718 110.523926L350.95718 110.523926L350.74118 110.44095L350.74118 110.44095L350.57217 110.32593L350.57217 110.32593L350.44516 110.18494L350.44516 110.18494L350.3552 110.02792L350.3552 110.02792L350.3002 109.85495L350.3002 109.85495L350.2822 109.66495L350.2822 109.66495L350.3002 109.46594L350.3002 109.46594L350.3552 109.28793L350.3552 109.28793L350.44516 109.129944L350.44516 109.129944L350.57217 108.99295L350.57217 108.99295L350.74118 108.88193L350.74118 108.88193L350.95718 108.80295L350.95718 108.80295L351.22116 108.75592L351.22116 108.75592L351.5322 108.73993L351.5322 108.73993L352.66617 108.73993L352.66617 108.73993L360.76614 86.68994L360.76614 86.68994L355.33218 86.68994L355.33218 86.68994L355.02115 86.67395L355.02115 86.67395L354.75717 86.62692L354.75717 86.62692L354.54117 86.54794L354.54117 86.54794L354.37216 86.43692L354.37216 86.43692L354.24515 86.29993L354.24515 86.29993L354.15518 86.14194L354.15518 86.14194L354.1002 85.96393L354.1002 85.96393L354.08218 85.76492L354.08218 85.76492L354.1002 85.56595L354.1002 85.56595L354.15518 85.38794L354.15518 85.38794L354.24515 85.22995L354.24515 85.22995L354.37216 85.092926L354.37216 85.092926L354.54117 84.98193L354.54117 84.98193L354.75717 84.90292L354.75717 84.90292L355.02115 84.85593L355.02115 84.85593L355.33218 84.839935L355.33218 84.839935L364.65915 84.839935L364.65915 84.839935L373.68015 108.73993L373.68015 108.73993L374.83218 108.73993L374.83218 108.73993L375.14316 108.75592L375.14316 108.75592L375.4072 108.80295L375.4072 108.80295L375.6232 108.88193L375.6232 108.88193L375.79214 108.99295L375.79214 108.99295L375.91916 109.129944L375.91916 109.129944L376.0092 109.28793L376.0092 109.28793L376.06418 109.46594L376.06418 109.46594L376.08218 109.66495L376.08218 109.66495L376.06418 109.85495L376.06418 109.85495L376.0092 110.02792L376.0092 110.02792L375.91916 110.18494L375.91916 110.18494L375.79214 110.32593L375.79214 110.32593L375.6232 110.44095L375.6232 110.44095L375.4072 110.523926L375.4072 110.523926L375.14316 110.57294L375.14316 110.57294L374.83218 110.589935L374.83218 110.589935L368.2822 110.589935L368.2822 110.589935L367.9672 110.57294L367.9672 110.57294L367.70114 110.523926L367.70114 110.523926L367.48416 110.44095L367.48416 110.44095L367.31717 110.32593L367.31717 110.32593L367.19217 110.18494L367.19217 110.18494L367.10318 110.02792L367.10318 110.02792L367.0502 109.85495L367.0502 109.85495L367.0322 109.66495L367.0322 109.66495L367.0502 109.46594L367.0502 109.46594L367.10318 109.28793L367.10318 109.28793L367.19217 109.129944L367.19217 109.129944L367.31717 108.99295L367.31717 108.99295L367.48416 108.88193L367.48416 108.88193L367.70114 108.80295L367.70114 108.80295L367.9672 108.75592L367.9672 108.75592L368.2822 108.73993L368.2822 108.73993L371.70517 108.73993L371.70517 108.73993L369.15817 101.98993z" />    </clipPath>
    <linearGradient gradientUnits="userSpaceOnUse"  transform="matrix(1 0 0 1 0 0)"  id="65649" x1="403.63217" y1="83.61006" x2="403.63217" y2="-21.98993"><stop stop-color="#53575C" offset="0%"/><stop stop-color="#53575C" offset="1%"/><stop stop-color="#53575C" offset="2%"/><stop stop-color="#53575C" offset="3%"/><stop stop-color="#53575C" offset="4%"/><stop stop-color="#53575C" offset="5%"/><stop stop-color="#53575C" offset="6%"/><stop stop-color="#53575C" offset="7%"/><stop stop-color="#53575C" offset="8%"/><stop stop-color="#53575C" offset="9%"/><stop stop-color="#53575C" offset="10%"/><stop stop-color="#53575C" offset="11%"/><stop stop-color="#53575C" offset="12%"/><stop stop-color="#53575C" offset="13%"/><stop stop-color="#53575C" offset="14%"/><stop stop-color="#53575C" offset="15%"/><stop stop-color="#53575C" offset="16%"/><stop stop-color="#53575C" offset="17%"/><stop stop-color="#53575C" offset="18%"/><stop stop-color="#53575C" offset="19%"/><stop stop-color="#53575C" offset="20%"/><stop stop-color="#53575C" offset="21%"/><stop stop-color="#55595E" offset="22%"/><stop stop-color="#565A5F" offset="23%"/><stop stop-color="#585C61" offset="24%"/><stop stop-color="#5A5E63" offset="25%"/><stop stop-color="#5B5F64" offset="26%"/><stop stop-color="#5D6166" offset="27%"/><stop stop-color="#5F6368" offset="28%"/><stop stop-color="#616469" offset="29%"/><stop stop-color="#62666B" offset="30%"/><stop stop-color="#64686C" offset="31%"/><stop stop-color="#66696E" offset="32%"/><stop stop-color="#676B70" offset="33%"/><stop stop-color="#696D71" offset="34%"/><stop stop-color="#6B6E73" offset="35%"/><stop stop-color="#6C7075" offset="36%"/><stop stop-color="#6E7276" offset="37%"/><stop stop-color="#707378" offset="38%"/><stop stop-color="#72757A" offset="39%"/><stop stop-color="#73777B" offset="40%"/><stop stop-color="#75787D" offset="41%"/><stop stop-color="#777A7F" offset="42%"/><stop stop-color="#787C80" offset="43%"/><stop stop-color="#7A7D82" offset="44%"/><stop stop-color="#7C7F83" offset="45%"/><stop stop-color="#7E8185" offset="46%"/><stop stop-color="#7F8287" offset="47%"/><stop stop-color="#818488" offset="48%"/><stop stop-color="#83868A" offset="49%"/><stop stop-color="#84878C" offset="50%"/><stop stop-color="#86898D" offset="51%"/><stop stop-color="#888B8F" offset="52%"/><stop stop-color="#898C91" offset="53%"/><stop stop-color="#8B8E92" offset="54%"/><stop stop-color="#8D9094" offset="55%"/><stop stop-color="#8F9195" offset="56%"/><stop stop-color="#909397" offset="57%"/><stop stop-color="#929599" offset="58%"/><stop stop-color="#94969A" offset="59%"/><stop stop-color="#95989C" offset="60%"/><stop stop-color="#979A9E" offset="61%"/><stop stop-color="#999B9F" offset="62%"/><stop stop-color="#9A9DA1" offset="63%"/><stop stop-color="#9C9FA3" offset="64%"/><stop stop-color="#9EA0A4" offset="65%"/><stop stop-color="#A0A2A6" offset="66%"/><stop stop-color="#A1A4A8" offset="67%"/><stop stop-color="#A3A5A9" offset="68%"/><stop stop-color="#A5A7AB" offset="69%"/><stop stop-color="#A6A9AC" offset="70%"/><stop stop-color="#A8AAAE" offset="71%"/><stop stop-color="#AAACB0" offset="72%"/><stop stop-color="#ACAEB1" offset="73%"/><stop stop-color="#ADB0B3" offset="74%"/><stop stop-color="#AFB1B5" offset="75%"/><stop stop-color="#B1B3B6" offset="76%"/><stop stop-color="#B2B5B8" offset="77%"/><stop stop-color="#B4B6BA" offset="78%"/><stop stop-color="#B6B8BB" offset="79%"/><stop stop-color="#B7BABD" offset="80%"/><stop stop-color="#B9BBBE" offset="81%"/><stop stop-color="#BBBDC0" offset="82%"/><stop stop-color="#BDBFC2" offset="83%"/><stop stop-color="#BEC0C3" offset="84%"/><stop stop-color="#C0C2C5" offset="85%"/><stop stop-color="#C2C4C7" offset="86%"/><stop stop-color="#C3C5C8" offset="87%"/><stop stop-color="#C5C7CA" offset="88%"/><stop stop-color="#C5C7CA" offset="89%"/><stop stop-color="#C5C7CA" offset="90%"/><stop stop-color="#C5C7CA" offset="91%"/><stop stop-color="#C5C7CA" offset="92%"/><stop stop-color="#C5C7CA" offset="93%"/><stop stop-color="#C5C7CA" offset="94%"/><stop stop-color="#C5C7CA" offset="95%"/><stop stop-color="#C5C7CA" offset="96%"/><stop stop-color="#C5C7CA" offset="97%"/><stop stop-color="#C5C7CA" offset="98%"/><stop stop-color="#C5C7CA" offset="99%"/><stop stop-color="#C5C7CA" offset="100%"/>
    </linearGradient>
    <clipPath  id="10">

    <path id=""  clip-rule="evenodd" transform="matrix(1 0 0 1 0 0)"  d="M396.73215 86.681946L396.73215 86.06793L396.73215 86.06793L396.7482 85.76193L396.7482 85.76193L396.7952 85.50293L396.7952 85.50293L396.87418 85.290924L396.87418 85.290924L396.9852 85.12494L396.9852 85.12494L397.12216 84.99994L397.12216 84.99994L397.28018 84.91095L397.28018 84.91095L397.45816 84.85794L397.45816 84.85794L397.6572 84.839935L397.6572 84.839935L397.85617 84.85794L397.85617 84.85794L398.03415 84.91095L398.03415 84.91095L398.19217 84.99994L398.19217 84.99994L398.3292 85.12494L398.3292 85.12494L398.44016 85.290924L398.44016 85.290924L398.5192 85.50293L398.5192 85.50293L398.5662 85.76193L398.5662 85.76193L398.58218 86.06793L398.58218 86.06793L398.58218 90.76193L398.58218 90.76193L398.5662 91.066925L398.5662 91.066925L398.5192 91.326935L398.5192 91.326935L398.44016 91.53894L398.44016 91.53894L398.3292 91.704926L398.3292 91.704926L398.19217 91.829926L398.19217 91.829926L398.03415 91.918945L398.03415 91.918945L397.85617 91.971924L397.85617 91.971924L397.6572 91.98993L397.6572 91.98993L397.46817 91.97394L397.46817 91.97394L397.29715 91.92395L397.29715 91.92395L397.14316 91.84195L397.14316 91.84195L397.00717 91.72693L397.00717 91.72693L396.89517 91.573944L396.89517 91.573944L396.81216 91.38092L396.81216 91.38092L396.75717 91.14694L396.75717 91.14694L396.73215 90.87094L396.73215 90.87094L396.6782 90.41693L396.6782 90.41693L396.57217 89.97293L396.57217 89.97293L396.41318 89.54193L396.41318 89.54193L396.20218 89.12195L396.20218 89.12195L395.9382 88.71393L395.9382 88.71393L395.62216 88.31793L395.62216 88.31793L395.25314 87.93292L395.25314 87.93292L394.83115 87.55994L394.83115 87.55994L394.36618 87.214935L394.36618 87.214935L393.86618 86.91693L393.86618 86.91693L393.33218 86.66394L393.33218 86.66394L392.76315 86.45694L392.76315 86.45694L392.15915 86.296936L392.15915 86.296936L391.52115 86.181946L391.52115 86.181946L390.84818 86.112946L390.84818 86.112946L390.14017 86.089935L390.14017 86.089935L389.39615 86.11392L389.39615 86.11392L388.6912 86.18793L388.6912 86.18793L388.02518 86.30994L388.02518 86.30994L387.3992 86.47995L387.3992 86.47995L386.8112 86.69992L386.8112 86.69992L386.26315 86.967926L386.26315 86.967926L385.75418 87.28595L385.75418 87.28595L385.28415 87.65195L385.28415 87.65195L384.86215 88.050934L384.86215 88.050934L384.4962 88.46893L384.4962 88.46893L384.1862 88.905945L384.1862 88.905945L383.93216 89.36093L383.93216 89.36093L383.7352 89.83392L383.7352 89.83392L383.59518 90.32593L383.59518 90.32593L383.51016 90.83594L383.51016 90.83594L383.48215 91.36392L383.48215 91.36392L383.5142 91.90094L383.5142 91.90094L383.6082 92.41293L383.6082 92.41293L383.76614 92.90094L383.76614 92.90094L383.98715 93.362946L383.98715 93.362946L384.2612 93.79294L384.2612 93.79294L384.57516 94.178925L384.57516 94.178925L384.93118 94.52295L384.93118 94.52295L385.32816 94.82492L385.32816 94.82492L385.7592 95.09094L385.7592 95.09094L386.2172 95.329926L386.2172 95.329926L386.7042 95.54193L386.7042 95.54193L387.2172 95.72592L387.2172 95.72592L387.81918 95.89795L387.81918 95.89795L388.56918 96.07492L388.56918 96.07492L389.4672 96.254944L389.4672 96.254944L390.51315 96.43994L390.51315 96.43994L392.2462 96.74994L392.2462 96.74994L393.6862 97.06293L393.6862 97.06293L394.8342 97.38092L394.8342 97.38092L395.29916 97.540924L395.29916 97.540924L395.69016 97.701935L395.69016 97.701935L396.15018 97.92493L396.15018 97.92493L396.58115 98.16794L396.58115 98.16794L396.98416 98.43292L396.98416 98.43292L397.35715 98.71893L397.35715 98.71893L397.70114 99.02493L397.70114 99.02493L398.01718 99.35193L398.01718 99.35193L398.3032 99.70093L398.3032 99.70093L398.5612 100.06995L398.5612 100.06995L398.78818 100.45795L398.78818 100.45795L398.98618 100.862946L398.98618 100.862946L399.15317 101.28494L399.15317 101.28494L399.28915 101.724945L399.28915 101.724945L399.39517 102.181946L399.39517 102.181946L399.47116 102.655945L399.47116 102.655945L399.51718 103.14694L399.51718 103.14694L399.5322 103.655945L399.5322 103.655945L399.5222 104.04794L399.5222 104.04794L399.4932 104.43292L399.4932 104.43292L399.37418 105.18094L399.37418 105.18094L399.17715 105.90094L399.17715 105.90094L398.90115 106.589935L398.90115 106.589935L398.54715 107.250946L398.54715 107.250946L398.1132 107.88193L398.1132 107.88193L397.60117 108.48395L397.60117 108.48395L397.0092 109.056946L397.0092 109.056946L396.35117 109.579926L396.35117 109.579926L395.63815 110.033936L395.63815 110.033936L394.8712 110.41794L394.8712 110.41794L394.0482 110.73193L394.0482 110.73193L393.17117 110.97592L393.17117 110.97592L392.2382 111.14993L392.2382 111.14993L391.2512 111.254944L391.2512 111.254944L390.2092 111.28995L390.2092 111.28995L389.61618 111.27792L389.61618 111.27792L389.03915 111.24295L389.03915 111.24295L388.47617 111.18393L388.47617 111.18393L387.9282 111.10193L387.9282 111.10193L387.39517 110.99594L387.39517 110.99594L386.87814 110.86594L386.87814 110.86594L386.37515 110.71292L386.37515 110.71292L385.88815 110.53693L385.88815 110.53693L385.41617 110.336945L385.41617 110.336945L384.9592 110.112946L384.9592 110.112946L384.51614 109.86594L384.51614 109.86594L384.08914 109.59494L384.08914 109.59494L383.67715 109.300934L383.67715 109.300934L383.28018 108.98395L383.28018 108.98395L382.8992 108.64194L382.8992 108.64194L382.5322 108.27695L382.5322 108.27695L382.5322 109.34494L382.5322 109.34494L382.51614 109.65494L382.51614 109.65494L382.46915 109.91693L382.46915 109.91693L382.39017 110.132935L382.39017 110.132935L382.27914 110.300934L382.27914 110.300934L382.14218 110.42694L382.14218 110.42694L381.98416 110.517944L381.98416 110.517944L381.80618 110.57193L381.80618 110.57193L381.60715 110.589935L381.60715 110.589935L381.41714 110.57193L381.41714 110.57193L381.24417 110.517944L381.24417 110.517944L381.0872 110.428925L381.0872 110.428925L380.9462 110.303925L380.9462 110.303925L380.83115 110.13693L380.83115 110.13693L380.7482 109.92395L380.7482 109.92395L380.6992 109.66293L380.6992 109.66293L380.68216 109.35593L380.68216 109.35593L380.68216 104.244934L380.68216 104.244934L380.69815 103.928925L380.69815 103.928925L380.74515 103.66193L380.74515 103.66193L380.8242 103.44394L380.8242 103.44394L380.93515 103.27594L380.93515 103.27594L381.07217 103.15094L381.07217 103.15094L381.2302 103.06192L381.2302 103.06192L381.40817 103.007935L381.40817 103.007935L381.60715 102.98993L381.60715 102.98993L381.79617 103.00592L381.79617 103.00592L381.9672 103.05594L381.9672 103.05594L382.1212 103.13794L382.1212 103.13794L382.25717 103.25293L382.25717 103.25293L382.36917 103.40494L382.36917 103.40494L382.45218 103.59894L382.45218 103.59894L382.50717 103.83295L382.50717 103.83295L382.5322 104.10895L382.5322 104.10895L382.59018 104.60794L382.59018 104.60794L382.70816 105.09494L382.70816 105.09494L382.88718 105.57193L382.88718 105.57193L383.12717 106.03693L383.12717 106.03693L383.42715 106.49094L383.42715 106.49094L383.78818 106.93292L383.78818 106.93292L384.2092 107.36392L384.2092 107.36392L384.6912 107.783936L384.6912 107.783936L385.22617 108.171936L385.22617 108.171936L385.80515 108.507935L385.80515 108.507935L386.4282 108.79294L386.4282 108.79294L387.09518 109.02594L387.09518 109.02594L387.80618 109.20694L387.80618 109.20694L388.56216 109.33594L388.56216 109.33594L389.36118 109.41394L389.36118 109.41394L390.20517 109.43994L390.20517 109.43994L391.04916 109.41293L391.04916 109.41293L391.84616 109.33194L391.84616 109.33194L392.59818 109.19794L392.59818 109.19794L393.30515 109.00894L393.30515 109.00894L393.96616 108.76694L393.96616 108.76694L394.58218 108.47095L394.58218 108.47095L395.15115 108.12094L395.15115 108.12094L395.67618 107.71695L395.67618 107.71695L396.14615 107.27594L396.14615 107.27594L396.55417 106.813934L396.55417 106.813934L396.89816 106.329926L396.89816 106.329926L397.18015 105.82593L397.18015 105.82593L397.40018 105.29993L397.40018 105.29993L397.55716 104.75293L397.55716 104.75293L397.65115 104.18494L397.65115 104.18494L397.68216 103.59494L397.68216 103.59494L397.6702 103.237946L397.6702 103.237946L397.6342 102.88992L397.6342 102.88992L397.57516 102.55194L397.57516 102.55194L397.49216 102.224945L397.49216 102.224945L397.3842 101.90692L397.3842 101.90692L397.25418 101.59894L397.25418 101.59894L397.09915 101.300934L397.09915 101.300934L396.9202 101.01294L396.9202 101.01294L396.71817 100.737946L396.71817 100.737946L396.4932 100.47693L396.4932 100.47693L396.24515 100.23093L396.24515 100.23093L395.97318 99.99994L395.97318 99.99994L395.36118 99.58194L395.36118 99.58194L394.65616 99.22293L394.65616 99.22293L393.99118 98.984924L393.99118 98.984924L393.03818 98.73395L393.03818 98.73395L391.7982 98.46893L391.7982 98.46893L390.2722 98.18994L390.2722 98.18994L389.16415 97.984924L389.16415 97.984924L388.1362 97.75394L388.1362 97.75394L387.18918 97.497925L387.18918 97.497925L386.32217 97.21594L386.32217 97.21594L385.5352 96.908936L385.5352 96.908936L384.82816 96.576935L384.82816 96.576935L384.20218 96.21893L384.20218 96.21893L383.65616 95.83493L383.65616 95.83493L383.18216 95.41794L383.18216 95.41794L382.77115 94.95993L382.77115 94.95993L382.4232 94.45892L382.4232 94.45892L382.13815 93.915924L382.13815 93.915924L381.91714 93.33093L381.91714 93.33093L381.7592 92.70395L381.7592 92.70395L381.66415 92.03595L381.66415 92.03595L381.63217 91.32492L381.63217 91.32492L381.66818 90.61194L381.66818 90.61194L381.7772 89.92395L381.7772 89.92395L381.95816 89.260925L381.95816 89.260925L382.2122 88.62393L382.2122 88.62393L382.53818 88.01193L382.53818 88.01193L382.9362 87.425934L382.9362 87.425934L383.4072 86.86594L383.4072 86.86594L383.95114 86.329926L383.95114 86.329926L384.55417 85.839935L384.55417 85.839935L385.20316 85.415924L385.20316 85.415924L385.89816 85.05594L385.89816 85.05594L386.64017 84.76294L386.64017 84.76294L387.42917 84.533936L387.42917 84.533936L388.26315 84.37094L388.26315 84.37094L389.1442 84.27295L389.1442 84.27295L390.07217 84.23993L390.07217 84.23993L391.0222 84.27792L391.0222 84.27792L391.93918 84.392944L391.93918 84.392944L392.82217 84.58295L392.82217 84.58295L393.67117 84.85092L393.67117 84.85092L394.48715 85.19394L394.48715 85.19394L395.2692 85.61392L395.2692 85.61392L396.01718 86.109924L396.01718 86.109924L396.73215 86.681946" />    </clipPath>
    <linearGradient gradientUnits="userSpaceOnUse"  transform="matrix(1 0 0 1 0 0)"  id="80185" x1="403.63217" y1="83.61006" x2="403.63217" y2="-21.98993"><stop stop-color="#53575C" offset="0%"/><stop stop-color="#53575C" offset="1%"/><stop stop-color="#53575C" offset="2%"/><stop stop-color="#53575C" offset="3%"/><stop stop-color="#53575C" offset="4%"/><stop stop-color="#53575C" offset="5%"/><stop stop-color="#53575C" offset="6%"/><stop stop-color="#53575C" offset="7%"/><stop stop-color="#53575C" offset="8%"/><stop stop-color="#53575C" offset="9%"/><stop stop-color="#53575C" offset="10%"/><stop stop-color="#53575C" offset="11%"/><stop stop-color="#53575C" offset="12%"/><stop stop-color="#53575C" offset="13%"/><stop stop-color="#53575C" offset="14%"/><stop stop-color="#53575C" offset="15%"/><stop stop-color="#53575C" offset="16%"/><stop stop-color="#53575C" offset="17%"/><stop stop-color="#53575C" offset="18%"/><stop stop-color="#53575C" offset="19%"/><stop stop-color="#53575C" offset="20%"/><stop stop-color="#53575C" offset="21%"/><stop stop-color="#55595E" offset="22%"/><stop stop-color="#565A5F" offset="23%"/><stop stop-color="#585C61" offset="24%"/><stop stop-color="#5A5E63" offset="25%"/><stop stop-color="#5B5F64" offset="26%"/><stop stop-color="#5D6166" offset="27%"/><stop stop-color="#5F6368" offset="28%"/><stop stop-color="#616469" offset="29%"/><stop stop-color="#62666B" offset="30%"/><stop stop-color="#64686C" offset="31%"/><stop stop-color="#66696E" offset="32%"/><stop stop-color="#676B70" offset="33%"/><stop stop-color="#696D71" offset="34%"/><stop stop-color="#6B6E73" offset="35%"/><stop stop-color="#6C7075" offset="36%"/><stop stop-color="#6E7276" offset="37%"/><stop stop-color="#707378" offset="38%"/><stop stop-color="#72757A" offset="39%"/><stop stop-color="#73777B" offset="40%"/><stop stop-color="#75787D" offset="41%"/><stop stop-color="#777A7F" offset="42%"/><stop stop-color="#787C80" offset="43%"/><stop stop-color="#7A7D82" offset="44%"/><stop stop-color="#7C7F83" offset="45%"/><stop stop-color="#7E8185" offset="46%"/><stop stop-color="#7F8287" offset="47%"/><stop stop-color="#818488" offset="48%"/><stop stop-color="#83868A" offset="49%"/><stop stop-color="#84878C" offset="50%"/><stop stop-color="#86898D" offset="51%"/><stop stop-color="#888B8F" offset="52%"/><stop stop-color="#898C91" offset="53%"/><stop stop-color="#8B8E92" offset="54%"/><stop stop-color="#8D9094" offset="55%"/><stop stop-color="#8F9195" offset="56%"/><stop stop-color="#909397" offset="57%"/><stop stop-color="#929599" offset="58%"/><stop stop-color="#94969A" offset="59%"/><stop stop-color="#95989C" offset="60%"/><stop stop-color="#979A9E" offset="61%"/><stop stop-color="#999B9F" offset="62%"/><stop stop-color="#9A9DA1" offset="63%"/><stop stop-color="#9C9FA3" offset="64%"/><stop stop-color="#9EA0A4" offset="65%"/><stop stop-color="#A0A2A6" offset="66%"/><stop stop-color="#A1A4A8" offset="67%"/><stop stop-color="#A3A5A9" offset="68%"/><stop stop-color="#A5A7AB" offset="69%"/><stop stop-color="#A6A9AC" offset="70%"/><stop stop-color="#A8AAAE" offset="71%"/><stop stop-color="#AAACB0" offset="72%"/><stop stop-color="#ACAEB1" offset="73%"/><stop stop-color="#ADB0B3" offset="74%"/><stop stop-color="#AFB1B5" offset="75%"/><stop stop-color="#B1B3B6" offset="76%"/><stop stop-color="#B2B5B8" offset="77%"/><stop stop-color="#B4B6BA" offset="78%"/><stop stop-color="#B6B8BB" offset="79%"/><stop stop-color="#B7BABD" offset="80%"/><stop stop-color="#B9BBBE" offset="81%"/><stop stop-color="#BBBDC0" offset="82%"/><stop stop-color="#BDBFC2" offset="83%"/><stop stop-color="#BEC0C3" offset="84%"/><stop stop-color="#C0C2C5" offset="85%"/><stop stop-color="#C2C4C7" offset="86%"/><stop stop-color="#C3C5C8" offset="87%"/><stop stop-color="#C5C7CA" offset="88%"/><stop stop-color="#C5C7CA" offset="89%"/><stop stop-color="#C5C7CA" offset="90%"/><stop stop-color="#C5C7CA" offset="91%"/><stop stop-color="#C5C7CA" offset="92%"/><stop stop-color="#C5C7CA" offset="93%"/><stop stop-color="#C5C7CA" offset="94%"/><stop stop-color="#C5C7CA" offset="95%"/><stop stop-color="#C5C7CA" offset="96%"/><stop stop-color="#C5C7CA" offset="97%"/><stop stop-color="#C5C7CA" offset="98%"/><stop stop-color="#C5C7CA" offset="99%"/><stop stop-color="#C5C7CA" offset="100%"/>
    </linearGradient>
</defs>

<g transform="matrix(1.3333 0 0 1.3333 0 0)">
	<g clip-path="url(#1)" >
		<g clip-path="url(#2)" >
    <path id=""  transform="matrix(1 0 0 -1 0 118)"  d="M-172.86783 313.41006L787.1322 313.41006L787.1322 313.41006L787.1322 -226.58994L787.1322 -226.58994L-172.86783 -226.58994z" stroke="none" fill="#FFFFFF" fill-rule="evenodd" />
			<g clip-path="url(#3)" >
				<g>
    <path id=""  transform="matrix(1 0 0 -1 0 118)"  d="M0 141.36006L607 141.36006L607 141.36006L607 35.76007L607 35.76007L0 35.76007" stroke="none" fill="url(#4572)" />
    <path id=""  transform="matrix(1 0 0 -1 0 118)"  d="M0 141.36006L607 141.36006L607 141.36006L607 118L607 118L0 118" stroke="none" fill="#53575C" fill-rule="evenodd" />
    <path id=""  transform="matrix(1 0 0 -1 0 118)"  d="M0 35.76007L607 35.76007L607 35.76007L607 0L607 0L0 0" stroke="none" fill="#C5C7CA" fill-rule="evenodd" />
				</g>
			</g>
			<g clip-path="url(#4)" >
				<g>
    <path id=""  transform="matrix(1 0 0 -1 0 118)"  d="M0 141.36006L607 141.36006L607 141.36006L607 35.76007L607 35.76007L0 35.76007" stroke="none" fill="url(#13662)" />
    <path id=""  transform="matrix(1 0 0 -1 0 118)"  d="M0 141.36006L607 141.36006L607 141.36006L607 118L607 118L0 118" stroke="none" fill="#53575C" fill-rule="evenodd" />
    <path id=""  transform="matrix(1 0 0 -1 0 118)"  d="M0 35.76007L607 35.76007L607 35.76007L607 0L607 0L0 0" stroke="none" fill="#C5C7CA" fill-rule="evenodd" />
				</g>
			</g>
			<g clip-path="url(#5)" >
				<g>
    <path id=""  transform="matrix(1 0 0 -1 0 118)"  d="M0 141.36006L607 141.36006L607 141.36006L607 35.76007L607 35.76007L0 35.76007" stroke="none" fill="url(#22931)" />
    <path id=""  transform="matrix(1 0 0 -1 0 118)"  d="M0 141.36006L607 141.36006L607 141.36006L607 118L607 118L0 118" stroke="none" fill="#53575C" fill-rule="evenodd" />
    <path id=""  transform="matrix(1 0 0 -1 0 118)"  d="M0 35.76007L607 35.76007L607 35.76007L607 0L607 0L0 0" stroke="none" fill="#C5C7CA" fill-rule="evenodd" />
				</g>
			</g>
			<g clip-path="url(#6)" >
				<g>
    <path id=""  transform="matrix(1 0 0 -1 0 118)"  d="M0 141.36006L607 141.36006L607 141.36006L607 35.76007L607 35.76007L0 35.76007" stroke="none" fill="url(#34087)" />
    <path id=""  transform="matrix(1 0 0 -1 0 118)"  d="M0 141.36006L607 141.36006L607 141.36006L607 118L607 118L0 118" stroke="none" fill="#53575C" fill-rule="evenodd" />
    <path id=""  transform="matrix(1 0 0 -1 0 118)"  d="M0 35.76007L607 35.76007L607 35.76007L607 0L607 0L0 0" stroke="none" fill="#C5C7CA" fill-rule="evenodd" />
				</g>
			</g>
			<g clip-path="url(#7)" >
				<g>
    <path id=""  transform="matrix(1 0 0 -1 0 118)"  d="M0 83.61006L607 83.61006L607 83.61006L607 -21.98993L607 -21.98993L0 -21.98993" stroke="none" fill="url(#49284)" />
    <path id=""  transform="matrix(1 0 0 -1 0 118)"  d="M0 83.61006L607 83.61006L607 83.61006L607 118L607 118L0 118" stroke="none" fill="#53575C" fill-rule="evenodd" />
    <path id=""  transform="matrix(1 0 0 -1 0 118)"  d="M0 -21.98993L607 -21.98993L607 -21.98993L607 0L607 0L0 0" stroke="none" fill="#C5C7CA" fill-rule="evenodd" />
				</g>
			</g>
			<g clip-path="url(#8)" >
				<g>
    <path id=""  transform="matrix(1 0 0 -1 0 118)"  d="M0 83.61006L607 83.61006L607 83.61006L607 -21.98993L607 -21.98993L0 -21.98993" stroke="none" fill="url(#57417)" />
    <path id=""  transform="matrix(1 0 0 -1 0 118)"  d="M0 83.61006L607 83.61006L607 83.61006L607 118L607 118L0 118" stroke="none" fill="#53575C" fill-rule="evenodd" />
    <path id=""  transform="matrix(1 0 0 -1 0 118)"  d="M0 -21.98993L607 -21.98993L607 -21.98993L607 0L607 0L0 0" stroke="none" fill="#C5C7CA" fill-rule="evenodd" />
				</g>
			</g>
			<g clip-path="url(#9)" >
				<g>
    <path id=""  transform="matrix(1 0 0 -1 0 118)"  d="M0 83.61006L607 83.61006L607 83.61006L607 -21.98993L607 -21.98993L0 -21.98993" stroke="none" fill="url(#65649)" />
    <path id=""  transform="matrix(1 0 0 -1 0 118)"  d="M0 83.61006L607 83.61006L607 83.61006L607 118L607 118L0 118" stroke="none" fill="#53575C" fill-rule="evenodd" />
    <path id=""  transform="matrix(1 0 0 -1 0 118)"  d="M0 -21.98993L607 -21.98993L607 -21.98993L607 0L607 0L0 0" stroke="none" fill="#C5C7CA" fill-rule="evenodd" />
				</g>
			</g>
			<g clip-path="url(#10)" >
				<g>
    <path id=""  transform="matrix(1 0 0 -1 0 118)"  d="M0 83.61006L607 83.61006L607 83.61006L607 -21.98993L607 -21.98993L0 -21.98993" stroke="none" fill="url(#80185)" />
    <path id=""  transform="matrix(1 0 0 -1 0 118)"  d="M0 83.61006L607 83.61006L607 83.61006L607 118L607 118L0 118" stroke="none" fill="#53575C" fill-rule="evenodd" />
    <path id=""  transform="matrix(1 0 0 -1 0 118)"  d="M0 -21.98993L607 -21.98993L607 -21.98993L607 0L607 0L0 0" stroke="none" fill="#C5C7CA" fill-rule="evenodd" />
				</g>
			</g>
		</g>
	</g>
</g>
</svg>